<?xml version="1.0" standalone="no"?>
<!DOCTYPE svg PUBLIC "-//W3C//DTD SVG 20010904//EN"
 "http://www.w3.org/TR/2001/REC-SVG-20010904/DTD/svg10.dtd">
<svg version="1.0" xmlns="http://www.w3.org/2000/svg"
 width="500.000000pt" height="500.000000pt" viewBox="0 0 500.000000 500.000000"
 preserveAspectRatio="xMidYMid meet">
<metadata>
Created by potrace 1.14, written by Peter Selinger 2001-2017
</metadata>
<g transform="translate(0.000000,500.000000) scale(0.100000,-0.100000)"
fill="#000000" stroke="none">
<path d="M2387 4796 c-4 -10 -5 -21 -2 -24 9 -9 17 6 13 25 -3 17 -4 17 -11
-1z"/>
<path d="M2708 4763 c6 -2 18 -2 25 0 6 3 1 5 -13 5 -14 0 -19 -2 -12 -5z"/>
<path d="M1801 4701 c-17 -11 -10 -34 12 -37 18 -2 22 13 9 33 -4 7 -13 9 -21
4z"/>
<path d="M2113 4675 c-6 -19 -8 -46 -5 -60 7 -24 7 -25 20 -5 7 12 8 20 2 20
-6 0 -8 15 -4 40 8 49 1 52 -13 5z"/>
<path d="M1725 4619 c0 -46 -4 -72 -13 -78 -20 -12 -57 -6 -58 10 0 8 -4 35
-8 62 -9 51 -28 66 -22 16 4 -35 -13 -111 -27 -121 -6 -3 -9 -33 -8 -65 1 -53
-2 -63 -25 -86 -29 -29 -39 -33 -49 -17 -3 5 -13 6 -22 3 -14 -5 -15 -1 -10
26 4 18 3 30 -2 26 -10 -6 -16 20 -26 107 -4 32 -10 60 -15 63 -4 3 -6 -20 -3
-51 5 -46 2 -59 -11 -66 -18 -10 -22 -38 -5 -38 6 0 8 -7 5 -16 -3 -9 4 -25
18 -39 l25 -25 -22 -42 c-29 -56 -27 -54 -35 -41 -8 12 -62 6 -62 -7 0 -4 -8
-11 -17 -14 -29 -12 -81 58 -74 98 1 4 -5 19 -14 32 -13 20 -18 22 -29 12 -9
-8 -10 -15 -4 -19 7 -4 5 -19 -6 -40 -9 -19 -11 -28 -4 -21 15 15 42 16 32 0
-4 -6 -3 -8 3 -5 10 6 43 -33 43 -50 0 -5 -19 -27 -41 -51 -23 -23 -37 -42
-31 -42 16 0 21 -48 5 -54 -9 -4 -11 -1 -7 6 5 8 3 8 -7 2 -8 -5 -30 -10 -49
-10 -65 -3 -88 -14 -74 -36 5 -7 9 -23 9 -36 1 -20 -3 -22 -25 -17 -18 4 -21
3 -10 -4 19 -13 8 -23 -24 -23 -15 0 -23 -5 -19 -11 4 -6 -8 -8 -35 -4 -23 3
-42 2 -42 -2 0 -5 -9 -18 -20 -31 -12 -13 -18 -30 -15 -37 3 -9 -2 -13 -13
-11 -10 2 -17 -3 -17 -12 0 -8 6 -14 14 -12 8 2 11 -3 8 -12 -3 -8 -1 -17 6
-20 7 -3 -26 -3 -73 0 -47 3 -89 9 -93 13 -16 16 -44 0 -55 -33 -16 -44 -16
-46 12 -46 27 0 39 -20 25 -41 -14 -22 -11 -27 17 -24 14 1 34 12 45 24 11 11
30 21 43 21 13 0 29 7 36 15 7 8 17 15 22 15 5 0 21 11 36 25 16 15 34 23 44
19 13 -4 21 4 32 30 8 20 20 36 26 36 20 0 80 32 80 42 0 5 -5 6 -11 2 -24
-15 -2 13 41 53 25 22 62 48 82 56 21 9 60 36 86 61 27 25 53 46 58 46 9 0 35
22 206 167 40 34 84 80 98 103 14 22 33 40 42 40 18 0 22 9 18 43 -1 10 10 31
24 48 29 35 30 42 15 105 -17 66 -24 61 -24 -17z m-839 -834 c-19 -15 -46 -20
-46 -10 0 6 40 24 55 24 6 0 1 -6 -9 -14z"/>
<path d="M2031 4641 c-10 -17 -9 -21 3 -21 20 0 31 19 18 32 -7 7 -14 3 -21
-11z"/>
<path d="M1805 4620 c3 -19 10 -39 15 -44 7 -7 7 -1 1 19 -17 54 -21 61 -16
25z"/>
<path d="M1855 4583 c2 -31 7 -39 25 -41 12 -2 30 -12 41 -23 10 -10 26 -19
34 -19 8 0 34 -8 57 -19 83 -36 238 -76 338 -87 46 -5 99 -17 178 -40 7 -2 10
-9 6 -15 -8 -14 -94 -5 -154 16 -23 8 -59 15 -79 14 l-36 -1 35 -9 c19 -5 53
-13 75 -18 97 -23 130 -33 141 -41 6 -6 14 -7 17 -3 4 3 8 -7 8 -23 1 -16 3
-21 6 -12 9 34 44 45 133 43 47 -2 90 1 95 5 6 5 30 4 55 0 25 -5 63 -9 85
-10 23 0 46 -5 51 -10 6 -6 45 -12 87 -13 52 -2 81 -7 94 -18 31 -27 53 -31
53 -9 0 13 8 20 28 22 15 2 26 8 25 16 -4 16 17 15 31 -2 9 -12 21 -12 79 3
37 10 65 20 62 23 -4 3 -21 1 -40 -5 -45 -13 -140 2 -141 23 -1 24 8 33 17 19
6 -10 9 -11 9 -1 0 15 36 16 77 2 18 -7 38 -7 54 -2 16 7 32 5 51 -4 27 -14
27 -14 47 41 12 31 21 62 21 70 0 8 5 17 10 20 12 8 13 25 1 25 -5 0 -11 -10
-14 -22 -6 -20 -7 -20 -31 -4 -25 16 -26 16 -26 -4 0 -11 7 -20 15 -20 20 0
19 -13 -4 -41 l-20 -24 -8 22 c-8 21 -10 22 -37 8 -33 -18 -56 -19 -56 -4 0 5
-5 7 -11 4 -17 -11 -103 5 -91 17 6 6 8 17 5 24 -3 9 2 14 13 15 13 0 10 4 -8
9 -16 5 -36 7 -45 5 -10 -2 -25 -4 -35 -4 -11 -1 -15 -7 -11 -22 4 -16 8 -17
14 -7 7 10 9 10 9 1 0 -7 7 -13 15 -13 23 0 18 -16 -6 -17 -12 -1 -39 -14 -60
-28 -28 -18 -46 -24 -64 -19 -28 7 -44 24 -23 24 8 1 6 6 -6 15 -24 18 -58 19
-102 3 -17 -6 -38 -8 -45 -4 -8 4 -34 17 -59 30 -34 18 -51 21 -69 14 -27 -10
-42 -1 -21 12 11 7 5 10 -22 10 -21 0 -38 5 -38 10 0 6 6 10 13 9 17 -3 67 22
67 34 0 5 -7 7 -15 4 -8 -4 -17 -2 -20 3 -10 16 -23 11 -21 -7 1 -13 -7 -19
-26 -21 -16 -2 -28 1 -28 7 0 6 -5 11 -11 11 -8 0 -9 -17 -4 -55 4 -38 3 -55
-5 -55 -6 0 -8 5 -5 11 4 6 -1 16 -10 23 -19 13 -46 13 -86 1 -21 -7 -22 -6
-10 9 16 19 8 22 -11 4 -36 -33 -50 -35 -99 -11 -26 13 -53 30 -59 38 -10 12
-15 10 -35 -13 -18 -21 -25 -24 -37 -14 -10 8 -24 9 -47 2 -32 -9 -128 3 -163
21 -10 5 -30 9 -44 9 -37 0 -124 58 -125 84 0 12 -3 15 -6 9 -8 -21 -33 -15
-33 7 0 11 -4 20 -8 20 -5 0 -8 -17 -7 -37z m825 -133 c0 -5 -2 -10 -4 -10 -3
0 -8 5 -11 10 -3 6 -1 10 4 10 6 0 11 -4 11 -10z m180 -31 c0 -11 -3 -11 -24
-3 -23 9 -20 23 4 17 11 -3 20 -9 20 -14z m150 -40 c0 -4 -7 -6 -15 -3 -8 4
-15 10 -15 15 0 4 7 6 15 3 8 -4 15 -10 15 -15z m-231 -10 c28 8 45 7 76 -4
22 -8 64 -14 93 -15 30 0 51 -4 47 -9 -3 -6 34 -7 92 -4 92 6 97 5 84 -11 -8
-9 -24 -16 -35 -15 -12 1 -29 -1 -38 -6 -10 -4 -39 -2 -65 4 -27 6 -73 10
-103 10 -30 -1 -115 1 -189 4 -123 5 -165 13 -133 24 9 4 10 9 3 17 -8 10 5
10 61 3 48 -6 83 -6 107 2z m425 -73 c-21 -15 -30 -14 -19 3 3 6 14 11 23 11
13 0 13 -2 -4 -14z"/>
<path d="M3051 4582 c-8 -8 -16 -10 -20 -4 -7 12 -25 -6 -29 -29 -2 -12 4 -15
23 -11 14 2 25 0 25 -5 0 -5 10 -9 23 -8 12 1 28 -2 35 -8 8 -7 12 -5 12 7 0
9 -4 16 -10 16 -5 0 -10 6 -10 13 0 7 -8 20 -18 28 -16 13 -20 13 -31 1z"/>
<path d="M2475 4570 c-8 -13 15 -24 27 -12 6 6 4 11 -6 15 -8 3 -18 2 -21 -3z"/>
<path d="M2290 4556 c0 -9 30 -14 35 -6 4 6 -3 10 -14 10 -12 0 -21 -2 -21 -4z"/>
<path d="M3500 4544 c0 -14 3 -14 15 -4 8 7 15 14 15 16 0 2 -7 4 -15 4 -8 0
-15 -7 -15 -16z"/>
<path d="M2810 4531 c0 -6 5 -13 12 -17 7 -4 8 -3 4 4 -5 8 -2 10 8 6 9 -3 16
-1 16 5 0 6 -9 11 -20 11 -11 0 -20 -4 -20 -9z"/>
<path d="M3557 4520 c-3 -11 -1 -20 4 -20 5 0 9 2 9 4 0 2 3 11 6 20 3 9 2 16
-4 16 -5 0 -12 -9 -15 -20z"/>
<path d="M2305 4519 c-11 -17 1 -21 15 -4 8 9 8 15 2 15 -6 0 -14 -5 -17 -11z"/>
<path d="M2530 4524 c0 -15 -85 -37 -112 -29 -23 7 -23 7 -3 -9 26 -20 65 -20
93 0 12 8 22 12 22 8 0 -5 5 -3 12 4 9 9 9 15 0 24 -7 7 -12 8 -12 2z"/>
<path d="M2847 4514 c-13 -13 -7 -24 14 -24 11 0 19 5 17 12 -5 14 -22 21 -31
12z"/>
<path d="M1785 4469 c-4 -6 -4 -13 -1 -16 3 -3 1 -15 -5 -26 -7 -13 -7 -17 -1
-13 6 3 18 -4 26 -16 l16 -22 0 29 c0 60 -18 92 -35 64z"/>
<path d="M1723 4428 c-23 -50 -96 -128 -147 -157 -30 -16 -64 -44 -76 -61 -13
-18 -54 -52 -92 -76 -38 -24 -71 -51 -75 -59 -3 -9 -43 -43 -89 -76 -46 -33
-84 -65 -84 -70 0 -5 -35 -35 -77 -66 -75 -55 -151 -123 -137 -123 3 0 19 11
36 25 16 14 35 25 43 25 7 0 16 7 19 16 4 10 13 13 26 9 14 -4 18 -2 15 7 -6
17 3 29 40 52 17 11 34 25 38 32 6 10 14 11 33 4 43 -17 53 -12 59 28 7 41 19
68 28 65 4 -2 18 9 33 24 l26 26 51 -54 c44 -47 48 -50 31 -19 -10 19 -27 43
-38 52 -11 11 -16 24 -12 34 6 15 12 12 41 -16 36 -35 47 -27 21 13 -8 12 -14
30 -12 41 4 26 36 48 51 36 9 -8 14 -4 18 11 3 12 10 18 17 14 6 -4 22 -4 35
-1 22 6 30 22 41 84 3 17 75 81 92 82 6 0 12 -7 12 -15 0 -8 9 -15 20 -15 11
0 20 5 20 11 0 6 -7 9 -15 5 -22 -8 -19 5 10 44 19 25 22 37 14 47 -9 9 -8 17
1 28 7 8 8 15 3 15 -5 0 -14 -10 -20 -22z"/>
<path d="M3576 4409 c-15 -22 -25 -43 -22 -46 2 -3 16 14 31 37 15 23 25 44
22 46 -2 2 -16 -14 -31 -37z"/>
<path d="M3742 4421 c2 -7 7 -12 11 -12 12 1 9 15 -3 20 -7 2 -11 -2 -8 -8z"/>
<path d="M1054 4313 c16 -85 17 -115 6 -128 -10 -12 -9 -15 3 -15 8 0 17 -5
19 -10 2 -7 11 -5 23 4 25 18 22 79 -6 109 -11 12 -22 32 -25 44 -9 33 -27 28
-20 -4z"/>
<path d="M3860 4329 c0 -5 5 -7 10 -4 6 3 10 8 10 11 0 2 -4 4 -10 4 -5 0 -10
-5 -10 -11z"/>
<path d="M3735 4309 c-11 -17 1 -21 15 -4 8 9 8 15 2 15 -6 0 -14 -5 -17 -11z"/>
<path d="M3490 4262 c0 -25 35 -109 72 -178 52 -95 72 -124 153 -222 33 -41
67 -85 76 -98 28 -44 132 -126 160 -128 10 -1 31 -16 46 -33 26 -31 171 -118
180 -109 11 10 -19 45 -47 54 -17 6 -33 19 -37 29 -3 10 -12 25 -19 33 -7 8
-13 17 -13 20 0 22 -25 62 -48 76 -31 20 -173 163 -173 175 0 4 -18 10 -40 14
-22 4 -37 11 -34 16 11 18 -6 59 -24 59 -23 1 -52 24 -52 42 0 9 -7 22 -16 29
-15 12 -16 11 -10 -9 6 -16 3 -22 -8 -22 -9 0 -16 7 -16 15 0 8 -3 15 -8 15
-4 0 -16 16 -26 35 -11 19 -25 35 -33 35 -7 0 -13 10 -13 23 0 13 -4 27 -8 33
-5 5 -14 28 -20 50 -7 23 -19 45 -27 48 -8 3 -15 2 -15 -2z"/>
<path d="M1235 4250 c-3 -5 -1 -10 4 -10 6 0 11 5 11 10 0 6 -2 10 -4 10 -3 0
-8 -4 -11 -10z"/>
<path d="M2570 4233 c0 -16 -6 -23 -19 -23 -20 0 -35 -25 -25 -42 4 -6 0 -14
-7 -20 -11 -7 -9 -8 6 -6 13 2 20 -2 19 -13 -1 -9 4 -16 11 -16 7 0 11 7 8 14
-3 8 0 13 8 11 16 -3 22 77 8 102 -6 12 -8 10 -9 -7z"/>
<path d="M3572 4172 c13 -16 24 -25 26 -21 3 8 -33 49 -44 49 -3 0 5 -13 18
-28z"/>
<path d="M867 4183 c-4 -3 -7 -11 -7 -17 0 -6 5 -5 12 2 6 6 9 14 7 17 -3 3
-9 2 -12 -2z"/>
<path d="M2614 4181 c-2 -2 -1 -8 2 -12 8 -14 64 -11 64 4 0 11 -56 18 -66 8z"/>
<path d="M1583 4156 c3 -8 1 -17 -6 -20 -8 -3 -9 -7 -2 -13 6 -4 17 -21 24
-38 11 -23 15 -26 18 -13 2 9 -1 26 -6 37 -6 11 -11 29 -11 40 0 12 -5 21 -11
21 -6 0 -9 -6 -6 -14z"/>
<path d="M1943 4160 c2 -8 10 -40 16 -70 7 -30 18 -73 24 -95 6 -22 11 -42 12
-45 7 -32 20 -50 35 -50 26 0 77 -45 84 -74 6 -24 61 -66 87 -66 7 0 23 -9 35
-21 13 -12 24 -17 28 -10 4 6 -7 17 -24 26 -57 29 -108 78 -116 111 -3 13 -18
25 -37 31 -44 12 -74 71 -104 203 -3 14 -9 27 -13 30 -4 3 -12 14 -19 25 -7
11 -11 13 -8 5z"/>
<path d="M1787 4139 c-5 -18 -2 -20 18 -17 23 5 23 4 10 -16 -18 -25 -19 -53
-2 -59 7 -3 5 -6 -5 -6 -30 -2 -20 -29 13 -36 22 -5 36 -3 47 9 15 14 14 19
-6 55 -12 21 -22 46 -22 56 0 12 -5 15 -22 10 -17 -6 -20 -4 -15 9 4 9 3 16
-2 16 -5 0 -11 -9 -14 -21z"/>
<path d="M2385 4150 c3 -5 8 -10 11 -10 2 0 4 5 4 10 0 6 -5 10 -11 10 -5 0
-7 -4 -4 -10z"/>
<path d="M805 4120 c-9 -15 46 -79 68 -80 4 0 3 6 -3 13 -6 6 -21 27 -34 45
-15 21 -27 29 -31 22z"/>
<path d="M2490 4120 c0 -5 7 -10 16 -10 8 0 12 5 9 10 -3 6 -10 10 -16 10 -5
0 -9 -4 -9 -10z"/>
<path d="M4116 4113 c-6 -14 -5 -15 5 -6 7 7 10 15 7 18 -3 3 -9 -2 -12 -12z"/>
<path d="M1480 4100 c0 -12 40 -34 48 -26 3 4 -3 13 -14 21 -22 17 -34 19 -34
5z"/>
<path d="M1650 4100 c0 -5 5 -10 11 -10 5 0 7 5 4 10 -3 6 -8 10 -11 10 -2 0
-4 -4 -4 -10z"/>
<path d="M2660 4084 c-10 -11 -10 -14 1 -14 8 0 20 4 27 9 11 7 11 9 -1 14 -9
3 -21 -1 -27 -9z"/>
<path d="M3500 4086 c0 -8 6 -17 13 -20 7 -3 6 -5 -3 -3 -18 2 -20 -3 -19 -40
1 -17 3 -21 6 -10 2 9 9 17 15 17 5 0 8 -6 5 -13 -3 -8 -1 -20 4 -28 6 -10 9
-8 9 10 0 24 0 24 15 5 8 -10 15 -34 15 -52 0 -36 18 -61 38 -54 8 2 10 -2 6
-15 -6 -17 -6 -17 11 -1 17 16 17 18 -8 47 -14 17 -39 60 -56 95 -30 65 -51
90 -51 62z"/>
<path d="M3329 4073 c-13 -16 -12 -17 4 -4 9 7 17 15 17 17 0 8 -8 3 -21 -13z"/>
<path d="M2575 4065 c-6 -8 -27 -16 -47 -18 -21 -1 -38 -5 -38 -8 0 -3 -11
-12 -25 -19 -28 -15 -35 -33 -9 -23 15 5 15 3 -1 -20 -20 -31 -38 -36 -33 -9
1 10 -6 27 -18 39 -19 22 -20 22 -21 2 -1 -11 2 -17 8 -14 10 7 12 -25 3 -49
-4 -11 -20 -16 -53 -17 -25 -1 -57 -4 -71 -9 -14 -4 47 -6 135 -5 169 2 344
-17 389 -43 5 -3 24 -6 43 -8 31 -3 151 -50 163 -64 3 -3 24 -12 47 -18 39
-12 44 -17 56 -59 8 -26 18 -48 23 -50 5 -1 18 14 30 35 11 20 39 66 61 102
43 70 61 130 40 130 -6 0 -19 -21 -27 -47 -8 -25 -22 -50 -30 -54 -72 -34 -71
-33 -93 -19 -45 28 -113 58 -147 65 -19 4 -43 18 -53 32 -11 13 -21 22 -24 19
-2 -2 -16 2 -31 10 -20 10 -29 11 -41 1 -11 -9 -15 -9 -18 0 -2 7 -11 9 -20 6
-10 -4 -14 -2 -10 4 8 12 102 16 125 5 10 -5 35 -4 61 2 38 10 42 13 28 25 -9
7 -25 10 -36 6 -10 -3 -22 -1 -26 4 -8 14 -163 7 -178 -8 -9 -9 -8 -14 3 -22
10 -7 3 -8 -25 -3 -40 7 -65 24 -65 43 0 6 -9 11 -20 11 -15 0 -22 9 -26 30
-7 33 -14 37 -29 15z"/>
<path d="M2686 4063 c-6 -7 12 -33 24 -33 3 0 7 7 7 15 0 15 -21 28 -31 18z"/>
<path d="M1465 4050 c3 -5 8 -10 11 -10 2 0 4 5 4 10 0 6 -5 10 -11 10 -5 0
-7 -4 -4 -10z"/>
<path d="M2446 4045 c-3 -8 -1 -15 4 -15 6 0 10 7 10 15 0 8 -2 15 -4 15 -2 0
-6 -7 -10 -15z"/>
<path d="M4060 4036 c0 -8 5 -18 10 -21 6 -3 10 1 10 9 0 8 -4 18 -10 21 -5 3
-10 -1 -10 -9z"/>
<path d="M1636 4031 c-9 -14 18 -61 34 -59 19 4 25 35 10 53 -14 17 -36 20
-44 6z"/>
<path d="M2795 4030 c3 -5 11 -10 16 -10 6 0 7 5 4 10 -3 6 -11 10 -16 10 -6
0 -7 -4 -4 -10z"/>
<path d="M3296 4023 c-6 -14 -5 -15 5 -6 7 7 10 15 7 18 -3 3 -9 -2 -12 -12z"/>
<path d="M1920 4007 c0 -14 5 -29 10 -32 7 -4 8 3 4 22 -9 38 -14 42 -14 10z"/>
<path d="M866 4002 c-3 -6 -1 -14 5 -17 14 -9 20 -2 10 14 -6 8 -11 9 -15 3z"/>
<path d="M3476 3981 c-3 -5 1 -11 9 -15 9 -3 15 0 15 9 0 16 -16 20 -24 6z"/>
<path d="M1813 3954 c-8 -17 -8 -26 1 -33 9 -7 15 -2 23 19 14 37 -7 49 -24
14z"/>
<path d="M1770 3954 c0 -8 5 -12 10 -9 6 4 8 11 5 16 -9 14 -15 11 -15 -7z"/>
<path d="M1690 3930 c0 -5 5 -10 11 -10 5 0 7 5 4 10 -3 6 -8 10 -11 10 -2 0
-4 -4 -4 -10z"/>
<path d="M1970 3930 c0 -5 5 -10 10 -10 6 0 10 5 10 10 0 6 -4 10 -10 10 -5 0
-10 -4 -10 -10z"/>
<path d="M1783 3913 c-7 -3 -13 -10 -13 -18 0 -7 -13 -18 -30 -25 -41 -17 -39
-48 3 -41 12 2 8 -17 -5 -22 -10 -4 -9 -6 1 -6 13 -1 81 64 81 77 -1 16 -26
38 -37 35z m-16 -60 c-9 -9 -20 -13 -24 -9 -4 4 -1 11 7 16 25 16 35 11 17 -7z"/>
<path d="M1939 3901 c8 -13 11 -39 8 -57 -4 -25 -2 -34 8 -34 25 0 33 -33 29
-110 -5 -85 11 -88 20 -2 7 59 -9 145 -30 166 -8 8 -14 19 -14 24 0 5 -7 16
-17 23 -15 13 -15 12 -4 -10z"/>
<path d="M3450 3880 c0 -5 5 -10 10 -10 6 0 10 5 10 10 0 6 -4 10 -10 10 -5 0
-10 -4 -10 -10z"/>
<path d="M765 3850 c-3 -5 -1 -10 4 -10 6 0 11 5 11 10 0 6 -2 10 -4 10 -3 0
-8 -4 -11 -10z"/>
<path d="M3355 3840 c-3 -5 -1 -10 4 -10 6 0 11 5 11 10 0 6 -2 10 -4 10 -3 0
-8 -4 -11 -10z"/>
<path d="M3487 3829 c6 -22 23 -26 23 -5 0 8 -6 16 -14 19 -10 4 -12 0 -9 -14z"/>
<path d="M655 3820 c3 -5 8 -10 11 -10 2 0 4 5 4 10 0 6 -5 10 -11 10 -5 0 -7
-4 -4 -10z"/>
<path d="M1655 3807 c-13 -20 -14 -30 -5 -46 12 -24 50 -28 50 -6 0 8 -5 15
-11 15 -6 0 -9 9 -6 19 9 34 -9 46 -28 18z"/>
<path d="M3317 3795 c-4 -8 -2 -17 4 -20 5 -4 9 -12 7 -18 -1 -7 2 -23 7 -37
8 -25 9 -24 16 9 10 50 -19 107 -34 66z"/>
<path d="M2067 3762 c3 -13 12 -26 19 -29 8 -3 14 -11 14 -18 0 -7 7 -18 16
-26 13 -10 17 -10 25 2 7 10 8 7 3 -11 -4 -14 -7 -36 -6 -50 1 -20 0 -22 -8
-10 -16 25 -11 -18 8 -70 16 -43 19 -45 47 -40 27 6 28 7 9 13 -23 8 -38 43
-23 53 16 10 10 62 -8 73 -15 8 -16 12 -4 23 10 9 12 10 7 1 -4 -8 -1 -13 8
-13 9 0 15 -3 15 -7 -3 -21 2 -32 15 -27 8 3 21 -4 29 -16 11 -16 21 -19 41
-14 14 3 32 1 39 -4 7 -6 18 -7 26 -2 10 6 3 15 -28 35 -45 30 -51 37 -23 29
9 -3 6 2 -8 10 -27 16 -55 22 -30 6 10 -7 11 -10 2 -10 -7 0 -15 7 -18 15 -4
8 -19 15 -34 15 -16 0 -32 4 -35 10 -4 6 1 7 12 3 10 -3 15 -3 12 1 -4 4 -16
8 -28 11 -12 2 -28 11 -37 19 -8 9 -20 16 -26 16 -6 0 -17 8 -24 18 -12 15
-12 15 -7 -6z"/>
<path d="M2942 3769 c-24 -9 -25 -39 -3 -59 13 -12 14 -12 8 3 -5 14 -2 16 17
11 27 -6 40 8 32 34 -7 20 -21 23 -54 11z"/>
<path d="M3522 3773 c-6 -3 -10 -9 -6 -14 3 -5 -2 -9 -10 -9 -9 0 -16 -4 -16
-10 0 -5 -7 -7 -15 -4 -8 4 -15 1 -15 -5 0 -6 7 -11 15 -11 8 0 15 -6 15 -12
1 -16 76 -52 90 -43 17 10 11 25 -12 35 -17 7 -13 8 18 4 26 -4 44 -2 48 5 4
6 2 11 -4 11 -6 0 -8 4 -5 10 3 5 0 7 -8 4 -14 -5 -31 21 -22 35 5 9 -53 12
-73 4z"/>
<path d="M1120 3760 c0 -5 5 -10 10 -10 6 0 10 5 10 10 0 6 -4 10 -10 10 -5 0
-10 -4 -10 -10z"/>
<path d="M1783 3754 c-18 -9 -33 -20 -33 -25 0 -13 5 -11 44 12 55 32 46 41
-11 13z"/>
<path d="M1630 3726 c0 -18 19 -31 28 -21 4 4 1 10 -6 12 -6 3 -10 9 -6 14 3
5 0 9 -5 9 -6 0 -11 -6 -11 -14z"/>
<path d="M477 3700 c-21 -36 -21 -39 2 -33 10 3 32 -2 47 -10 33 -16 70 -16
99 0 20 12 20 12 0 18 -11 4 -31 11 -45 17 -16 6 -26 6 -28 -1 -2 -7 -11 -6
-27 1 -14 6 -22 14 -20 19 3 4 2 10 -3 13 -5 3 -16 -8 -25 -24z m103 -30 c0
-5 -2 -10 -4 -10 -3 0 -8 5 -11 10 -3 6 -1 10 4 10 6 0 11 -4 11 -10z"/>
<path d="M885 3716 c-33 -15 -85 -66 -67 -66 6 0 17 6 24 13 19 18 40 15 66
-10 30 -31 29 -52 -2 -46 -18 4 -26 0 -31 -17 -4 -12 -5 -23 -3 -26 10 -9 68
9 68 22 0 8 4 14 10 14 5 0 7 -13 3 -30 -5 -26 -3 -30 13 -24 16 5 16 4 4 -5
-22 -16 -40 -13 -40 5 0 13 -3 14 -14 5 -7 -6 -20 -9 -28 -6 -10 4 -17 -1 -21
-14 -5 -21 -27 -30 -27 -11 0 6 5 10 11 10 5 0 7 5 3 12 -4 6 -7 26 -6 44 1
21 -4 34 -15 38 -21 9 -31 -3 -13 -14 13 -8 12 -10 -3 -10 -10 0 -32 -7 -50
-17 -30 -15 -31 -15 -18 0 11 15 11 17 -1 17 -8 0 -20 -6 -27 -12 -11 -11 -12
-10 -6 1 5 9 3 12 -6 9 -17 -6 -13 -40 6 -51 17 -9 59 -76 53 -83 -3 -2 -28
20 -55 51 -31 34 -58 55 -72 55 -28 0 -27 -5 14 -47 19 -20 35 -42 35 -48 0
-7 16 -25 36 -40 25 -19 33 -30 25 -38 -8 -8 -17 -5 -33 10 -31 27 -115 69
-142 71 -5 0 -12 6 -16 12 -4 7 -16 10 -26 8 -14 -2 -7 -10 28 -28 31 -17 71
-56 122 -117 42 -51 76 -96 76 -101 0 -5 7 -15 15 -22 8 -7 15 -18 15 -24 0
-6 -9 0 -20 14 -10 14 -21 22 -24 20 -8 -9 36 -100 46 -94 6 4 4 -4 -3 -17
-13 -24 -14 -24 -17 -2 -2 12 -9 24 -16 26 -10 4 -10 -6 2 -48 17 -62 11 -90
-18 -82 -22 6 -26 -3 -10 -19 7 -7 8 -28 4 -52 -6 -38 -10 -42 -34 -42 -20 0
-29 -6 -33 -21 -5 -18 -2 -20 19 -15 21 6 24 3 24 -19 0 -14 -5 -25 -11 -25
-6 0 -9 -7 -5 -15 3 -10 -1 -15 -13 -15 -10 0 -26 -9 -36 -20 -10 -11 -22 -20
-26 -20 -4 0 -19 -4 -34 -10 -22 -8 -24 -13 -15 -30 6 -11 15 -20 21 -20 6 0
17 -7 26 -15 8 -8 19 -12 25 -9 7 4 8 2 4 -4 -4 -7 -19 -12 -34 -13 -15 0 -36
-4 -47 -9 -15 -6 -8 -9 28 -9 58 -1 78 -18 71 -57 -8 -42 -20 -52 -75 -59 -50
-7 -79 -25 -79 -51 0 -10 -10 -13 -40 -10 -50 5 -53 -11 -4 -20 23 -4 38 -13
41 -25 6 -22 61 -49 101 -49 45 0 47 -14 6 -54 -38 -37 -58 -44 -69 -25 -5 7
-15 3 -29 -10 -21 -20 -66 -25 -66 -8 0 5 8 6 18 3 14 -5 13 -3 -3 9 -15 12
-21 13 -24 3 -9 -28 -25 -36 -38 -19 -11 14 -12 11 -9 -17 1 -18 13 -42 24
-53 12 -11 22 -27 23 -37 0 -10 3 -12 6 -4 8 21 23 13 23 -13 0 -17 6 -25 18
-26 57 -4 84 -3 88 3 2 3 12 4 22 1 26 -6 28 -59 2 -73 -50 -26 11 -35 63 -8
21 11 23 40 2 32 -11 -5 -15 1 -15 25 0 18 5 31 13 31 67 -1 87 -52 62 -155
-13 -49 2 -25 24 43 19 56 20 64 6 78 -21 21 -19 40 2 23 10 -9 14 -9 10 -2
-8 12 29 63 45 63 4 0 8 -18 8 -40 0 -48 18 -88 69 -150 20 -24 35 -50 33 -57
-2 -7 3 -10 11 -7 8 3 29 -3 46 -14 l31 -19 -40 -18 c-22 -10 -38 -20 -36 -22
2 -3 15 1 28 8 12 7 62 14 109 15 85 3 87 3 81 -19 -5 -20 -4 -20 11 -8 9 7
14 18 11 25 -3 6 3 1 14 -11 11 -13 26 -23 33 -23 7 0 9 -3 6 -6 -4 -4 3 -25
15 -48 29 -53 27 -50 34 -43 3 3 -4 20 -16 36 -12 17 -20 41 -18 53 3 21 4 21
21 4 15 -16 18 -16 23 -2 3 9 11 13 17 9 6 -4 8 3 3 21 -9 35 10 34 60 -4 21
-16 46 -30 55 -30 9 0 37 -22 62 -49 44 -47 80 -73 119 -85 17 -5 46 -89 88
-255 15 -60 19 -99 15 -132 -4 -29 -3 -49 4 -53 9 -6 17 7 52 86 6 12 4 15 -6
12 -10 -4 -12 2 -5 32 5 21 7 40 4 43 -2 2 -4 -1 -4 -8 0 -7 -4 -9 -10 -6 -5
3 -10 19 -10 35 0 15 -4 30 -8 32 -7 3 -35 74 -46 118 -2 8 -9 27 -14 41 -13
32 -11 52 7 73 11 13 11 20 -3 41 -24 37 -12 91 31 136 l35 37 -17 35 c-9 20
-23 38 -31 41 -8 3 -14 12 -14 21 0 8 -4 15 -8 15 -11 0 -32 59 -22 65 5 3 22
7 40 9 43 5 51 16 11 16 -18 0 -46 -7 -63 -16 -25 -13 -32 -14 -39 -2 -5 7 -9
15 -9 18 1 11 39 50 49 50 7 0 22 7 34 14 12 8 58 22 102 31 108 22 115 24
115 41 0 8 15 21 33 29 17 7 58 25 90 39 31 14 57 29 57 35 0 6 11 27 25 47
14 20 25 46 24 58 0 19 -1 19 -10 -4 -6 -14 -24 -46 -41 -72 -26 -42 -37 -50
-91 -67 -70 -21 -85 -19 -93 14 -9 36 4 62 36 75 17 7 30 16 30 21 0 5 5 9 11
9 17 0 36 24 31 39 -3 8 0 11 7 7 8 -5 8 0 -1 18 -6 15 -16 26 -22 25 -24 -3
-56 14 -57 30 0 11 -3 9 -9 -6 -6 -15 -18 -23 -34 -23 -28 0 -31 11 -42 135
-5 63 -12 87 -31 113 -34 46 -39 35 -8 -20 20 -36 26 -64 30 -126 l4 -81 -33
-21 c-18 -11 -40 -20 -49 -20 -23 0 -47 28 -47 55 0 14 -7 25 -20 28 -17 4
-19 9 -11 29 10 26 -1 41 -39 53 l-24 8 22 18 c20 16 21 20 10 46 -17 37 -39
54 -55 42 -8 -7 -14 -3 -19 13 -4 13 -7 28 -6 34 1 6 -4 16 -11 23 -12 9 -13
-5 -9 -85 5 -110 -11 -125 -23 -22 -4 35 -15 81 -26 103 -34 73 -85 159 -100
167 -36 20 -147 68 -157 68 -7 0 -12 5 -12 10 0 6 -16 18 -35 27 -19 9 -35 20
-35 25 0 4 -10 8 -22 8 -23 0 -23 0 3 -18 22 -15 24 -20 14 -39 -7 -13 -15
-20 -18 -16 -4 3 -7 1 -7 -5 0 -7 5 -12 10 -12 6 0 10 -5 10 -11 0 -6 -7 -8
-17 -5 -10 4 -14 4 -11 0 11 -10 -11 -44 -28 -44 -20 0 -44 -24 -44 -44 0 -22
-17 -28 -25 -9 -5 15 -9 12 -22 -15 -21 -42 -34 -30 -43 40 -6 41 -3 61 10 88
25 51 35 84 21 76 -6 -4 -11 -2 -11 3 0 6 5 11 11 11 5 0 8 4 5 8 -5 9 9 12
53 13 23 1 23 1 -5 19 -15 11 -32 16 -36 14 -5 -3 -15 -1 -22 5 -10 9 -15 7
-19 -9 -5 -20 -27 -28 -27 -10 0 6 -5 10 -11 10 -14 0 -3 -169 14 -218 9 -27
9 -35 -3 -42 -23 -14 -29 0 -46 101 -20 127 -37 180 -73 233 -34 50 -38 66
-16 66 8 0 15 -6 15 -14 0 -11 9 -13 33 -10 44 7 127 -30 127 -56 0 -25 36
-35 74 -20 15 5 33 7 39 3 7 -4 48 -19 92 -33 57 -19 83 -33 91 -49 8 -15 13
-18 16 -10 4 12 10 12 34 0 16 -7 26 -10 22 -6 -11 11 10 45 27 45 8 0 29 -9
47 -20 38 -23 58 -25 58 -7 0 20 37 50 54 44 8 -3 17 -1 20 6 3 7 5 -5 3 -26
-2 -23 1 -36 7 -34 6 2 10 13 8 23 -2 12 0 15 5 8 13 -18 67 -9 116 19 25 15
49 32 52 38 4 5 25 22 48 36 83 52 142 119 170 191 36 93 40 112 28 112 -6 0
-11 -7 -11 -15 0 -23 -49 -115 -61 -115 -16 0 -41 -29 -34 -40 3 -5 -1 -10 -9
-10 -9 0 -26 -14 -38 -31 -15 -19 -29 -29 -40 -26 -10 3 -18 1 -18 -4 0 -4 -7
-6 -15 -3 -9 4 -15 0 -15 -10 0 -9 5 -16 12 -16 6 0 8 -3 4 -7 -7 -8 -15 -9
-83 -14 -34 -2 -47 -19 -16 -19 12 0 14 -3 7 -10 -15 -15 -46 -1 -40 17 3 8
-1 21 -9 29 -8 9 -15 11 -15 5 0 -5 5 -13 10 -16 13 -8 3 -25 -16 -25 -8 0
-14 9 -14 20 0 11 -1 20 -2 20 -2 0 -21 -6 -43 -14 -21 -8 -44 -12 -50 -10
-12 5 -12 94 -1 113 4 7 3 18 -3 25 -8 9 -7 21 5 45 8 17 19 31 22 31 4 0 13
9 20 20 10 17 10 20 -2 20 -8 0 -21 -7 -30 -15 -8 -8 -17 -15 -20 -15 -3 0 -3
7 0 15 4 10 0 15 -16 15 -11 0 -18 5 -15 10 3 6 3 15 -1 21 -3 6 -14 -12 -24
-40 -21 -62 -29 -71 -41 -49 -9 17 -44 14 -56 -5 -4 -6 4 -7 21 -3 18 4 25 3
21 -4 -3 -5 -15 -10 -25 -10 -13 0 -17 -5 -14 -14 9 -25 -18 -30 -37 -8 -9 12
-23 22 -31 22 -23 0 -38 22 -38 56 0 42 -10 70 -20 54 -4 -6 -25 -14 -47 -17
-52 -7 -86 22 -78 65 3 15 2 20 -2 12 -3 -8 -12 -21 -20 -28 -13 -13 -18 -6
-14 20 0 4 -6 5 -14 2 -10 -4 -15 0 -16 12 0 18 -1 17 -9 -1 -8 -19 -9 -18
-11 5 -1 14 -2 31 -2 38 1 6 -10 12 -22 12 -13 0 -26 -6 -29 -12 -4 -7 -4 -3
-2 10 5 25 2 26 -39 8z m-86 -172 c-8 -24 -8 -25 6 -14 18 15 20 14 30 -19 7
-23 6 -24 -26 -17 -34 6 -62 32 -56 50 2 6 14 13 28 17 13 4 25 7 26 8 1 1 -2
-11 -8 -25z m181 -36 c0 9 10 11 38 6 45 -8 49 -11 34 -26 -8 -8 -8 -17 -1
-30 15 -29 2 -35 -20 -10 -18 22 -32 28 -30 15 3 -20 -3 -23 -22 -12 -14 7
-24 8 -28 1 -4 -7 -12 -6 -24 3 -16 11 -16 13 -1 19 10 4 14 12 10 22 -4 12
-2 15 9 10 8 -3 15 0 15 7 0 8 4 6 10 -3 7 -11 10 -11 10 -2z m-96 -74 c3 -8
2 -12 -4 -9 -6 3 -10 10 -10 16 0 14 7 11 14 -7z m-193 -35 c34 -36 38 -54 9
-39 -11 6 -20 15 -20 20 0 6 -9 19 -20 30 -11 11 -15 20 -9 20 6 0 24 -14 40
-31z m924 -147 c-3 -3 -11 0 -18 7 -9 10 -8 11 6 5 10 -3 15 -9 12 -12z m-35
-22 c0 -5 -8 -10 -17 -10 -15 0 -16 2 -3 10 19 12 20 12 20 0z m-294 -259 c4
-17 13 -36 22 -43 14 -11 15 -10 8 7 -5 15 -4 17 4 9 16 -16 9 -49 -10 -50 -8
0 -23 -4 -32 -8 -9 -4 -21 -5 -27 -2 -5 4 -12 2 -16 -4 -4 -6 -10 -8 -15 -5
-4 3 -13 -2 -20 -10 -12 -15 -30 -12 -30 5 0 5 7 6 17 3 11 -4 14 -3 9 5 -4 7
-16 12 -27 12 -12 0 -17 -4 -14 -11 8 -13 -4 -64 -13 -55 -13 14 0 88 20 108
11 11 23 16 26 12 4 -3 1 -9 -5 -11 -7 -3 -13 -9 -13 -14 0 -6 5 -7 10 -4 6 3
10 1 10 -5 0 -6 5 -8 11 -4 8 4 7 9 -2 15 -12 7 -12 9 0 9 10 0 8 7 -7 23
l-22 23 24 21 c30 26 42 18 21 -14 -9 -13 -11 -23 -5 -23 5 0 16 16 25 36 13
32 16 34 30 20 8 -8 18 -28 21 -45z m-446 -17 c0 -2 -7 -4 -15 -4 -8 0 -15 4
-15 10 0 5 7 7 15 4 8 -4 15 -8 15 -10z m520 -55 c0 -6 -4 -7 -10 -4 -5 3 -10
11 -10 16 0 6 5 7 10 4 6 -3 10 -11 10 -16z m-550 -39 c0 -5 -4 -10 -10 -10
-5 0 -10 5 -10 10 0 6 5 10 10 10 6 0 10 -4 10 -10z m40 -16 c12 -21 12 -27 0
-34 -20 -12 -27 -5 -28 30 -1 37 10 39 28 4z m79 -143 c0 -20 -4 -44 -7 -54
-7 -16 -9 -16 -30 -2 -25 18 -29 50 -7 59 8 3 15 17 15 32 0 22 2 25 15 14 9
-7 15 -28 14 -49z m-51 -198 c2 -8 -5 -13 -17 -13 -12 0 -21 6 -21 16 0 18 31
15 38 -3z m977 -105 c-9 -30 -33 -48 -62 -48 -24 0 -24 0 -6 24 17 23 47 44
66 45 5 1 5 -9 2 -21z m-1015 -47 c0 -23 -28 -54 -40 -46 -13 8 10 65 26 65 8
0 14 -9 14 -19z m-163 -22 c-11 -29 -12 -29 -15 -9 -3 18 10 38 25 40 1 0 -4
-14 -10 -31z m-227 -104 c0 -9 -6 -12 -15 -9 -8 4 -12 10 -9 15 8 14 24 10 24
-6z m924 -248 c8 -7 20 -27 29 -43 9 -17 23 -37 32 -44 9 -7 23 -26 31 -42
l15 -29 -49 33 c-27 18 -70 45 -96 61 -46 27 -53 47 -16 47 10 0 20 7 24 15 7
18 14 19 30 2z m-154 -87 c0 -5 -5 -10 -11 -10 -5 0 -7 5 -4 10 3 6 8 10 11
10 2 0 4 -4 4 -10z"/>
<path d="M1257 2933 c-12 -12 -7 -33 7 -33 9 0 14 9 13 20 -1 20 -9 25 -20 13z"/>
<path d="M1703 3713 c-20 -4 -39 -30 -29 -41 7 -7 56 26 56 38 0 6 -1 9 -2 9
-2 -1 -13 -4 -25 -6z"/>
<path d="M3193 3678 c-20 -26 -22 -35 -8 -35 8 0 13 3 10 5 -3 3 0 11 7 19 6
7 9 16 6 18 -3 3 -10 0 -15 -7z"/>
<path d="M2040 3637 c0 -21 -16 -77 -35 -124 -20 -47 -34 -87 -32 -89 2 -2 19
27 38 66 19 38 37 70 42 70 6 0 12 -48 8 -77 -1 -8 5 -10 14 -7 21 9 19 40
-10 125 -22 68 -24 71 -25 36z"/>
<path d="M2396 3661 c9 -9 83 -27 74 -18 -3 3 -23 10 -44 16 -22 5 -35 6 -30
2z"/>
<path d="M3315 3660 c3 -5 8 -10 11 -10 2 0 4 5 4 10 0 6 -5 10 -11 10 -5 0
-7 -4 -4 -10z"/>
<path d="M3680 3655 c0 -14 -3 -15 -15 -5 -8 7 -15 8 -15 3 0 -11 48 -39 54
-32 13 13 9 44 -6 47 -12 2 -18 -3 -18 -13z"/>
<path d="M2546 3650 c6 -6 31 -14 55 -17 34 -4 41 -3 33 7 -6 6 -31 14 -55 17
-34 4 -41 3 -33 -7z"/>
<path d="M3028 3649 c-24 -14 -23 -28 2 -22 11 3 20 12 20 19 0 16 0 16 -22 3z"/>
<path d="M3079 3619 c-13 -22 -23 -42 -21 -45 2 -3 -9 -21 -23 -40 -21 -28
-23 -33 -7 -23 19 12 73 89 85 121 12 34 -10 26 -34 -13z"/>
<path d="M1425 3640 c3 -5 8 -10 11 -10 2 0 4 5 4 10 0 6 -5 10 -11 10 -5 0
-7 -4 -4 -10z"/>
<path d="M3581 3641 c-8 -5 -9 -11 -3 -15 13 -8 42 3 42 15 0 11 -21 11 -39 0z"/>
<path d="M2747 3633 c-13 -13 -7 -21 24 -32 50 -17 169 -12 169 8 0 3 -26 6
-58 6 -31 -1 -72 5 -91 12 -39 15 -36 15 -44 6z"/>
<path d="M3352 3629 c3 -8 -4 -33 -14 -57 -23 -52 -18 -70 32 -115 21 -20 36
-38 33 -40 -2 -3 4 -4 14 -3 13 1 19 -7 21 -32 3 -25 8 -32 20 -30 9 2 16 12
15 22 -1 14 4 16 24 11 16 -4 22 -2 18 5 -3 5 1 13 11 17 24 9 47 -23 32 -47
-9 -14 -8 -22 5 -34 9 -9 18 -15 21 -14 2 2 8 0 12 -4 4 -5 2 -8 -4 -8 -15 0
-15 -10 -2 -30 9 -13 12 -12 25 4 19 25 19 46 1 46 -8 0 -17 7 -20 16 -3 8
-10 12 -16 9 -5 -3 -10 -2 -10 3 0 9 31 26 35 20 0 -2 30 -43 65 -93 35 -49
75 -115 89 -145 20 -45 26 -51 29 -32 4 23 -53 153 -89 204 -11 14 -19 36 -19
47 0 12 -6 21 -16 21 -8 0 -13 4 -10 9 3 4 17 6 31 3 16 -3 25 0 25 8 0 8 9
11 25 8 14 -3 28 -1 31 4 4 5 17 7 30 4 13 -4 24 -2 24 4 0 15 -49 24 -64 11
-8 -7 -18 -11 -22 -10 -5 1 -11 0 -14 -1 -16 -6 -52 -5 -56 2 -3 4 0 8 7 8 9
0 10 3 2 11 -8 8 -16 7 -31 -2 -18 -11 -23 -10 -41 12 -21 24 -27 49 -13 49 4
0 13 -13 19 -30 6 -16 16 -30 22 -30 6 0 8 7 5 15 -5 12 -2 14 12 8 34 -12 -3
23 -38 38 -25 10 -33 10 -36 1 -7 -22 -32 7 -32 37 0 14 -5 33 -10 41 -9 13
-12 13 -24 -3 -13 -17 -17 -15 -72 21 -85 56 -87 57 -82 41z"/>
<path d="M3496 3624 c-8 -21 -8 -21 8 -21 8 0 11 8 8 19 -5 22 -8 23 -16 2z"/>
<path d="M3578 3603 c7 -3 16 -2 19 1 4 3 -2 6 -13 5 -11 0 -14 -3 -6 -6z"/>
<path d="M3736 3602 c-3 -6 -1 -14 5 -17 15 -10 25 3 12 16 -7 7 -13 7 -17 1z"/>
<path d="M555 3590 c-3 -5 -2 -10 4 -10 5 0 13 5 16 10 3 6 2 10 -4 10 -5 0
-13 -4 -16 -10z"/>
<path d="M2420 3593 c0 -4 18 -7 40 -5 46 5 224 -23 288 -44 23 -8 53 -14 65
-13 32 0 -88 38 -158 50 -93 15 -235 23 -235 12z"/>
<path d="M424 3559 c-4 -7 -1 -10 7 -7 8 3 22 -7 31 -21 10 -14 18 -22 18 -18
0 12 -32 57 -41 57 -4 0 -11 -5 -15 -11z"/>
<path d="M2470 3560 c0 -6 7 -10 15 -10 8 0 15 2 15 4 0 2 -7 6 -15 10 -8 3
-15 1 -15 -4z"/>
<path d="M2280 3540 c0 -5 5 -10 11 -10 5 0 7 5 4 10 -3 6 -8 10 -11 10 -2 0
-4 -4 -4 -10z"/>
<path d="M2878 3533 c7 -3 16 -2 19 1 4 3 -2 6 -13 5 -11 0 -14 -3 -6 -6z"/>
<path d="M3800 3496 c0 -14 -5 -28 -12 -32 -8 -5 -9 -2 -5 9 5 12 1 17 -13 17
-18 0 -19 -3 -8 -20 15 -24 48 -27 48 -4 0 10 5 14 15 10 13 -4 13 -2 5 14
-16 30 -30 33 -30 6z"/>
<path d="M3080 3490 c0 -12 26 -31 33 -23 12 11 7 21 -13 26 -11 3 -20 2 -20
-3z"/>
<path d="M480 3480 c0 -5 4 -10 9 -10 6 0 13 5 16 10 3 6 -1 10 -9 10 -9 0
-16 -4 -16 -10z"/>
<path d="M2211 3440 c4 -19 15 -40 23 -46 9 -6 16 -18 16 -26 0 -16 19 -38 34
-38 5 0 1 9 -8 19 -10 11 -15 25 -11 30 3 6 2 11 -4 11 -6 0 -6 11 -1 30 8 30
-3 52 -14 28 -4 -7 -5 -4 -3 7 3 15 -2 20 -18 20 -20 0 -21 -3 -14 -35z"/>
<path d="M2957 3461 c-4 -17 -3 -21 5 -13 5 5 8 16 6 23 -3 8 -7 3 -11 -10z"/>
<path d="M3926 3471 c-4 -7 -5 -15 -2 -18 9 -9 19 4 14 18 -4 11 -6 11 -12 0z"/>
<path d="M3688 3463 c7 -3 16 -2 19 1 4 3 -2 6 -13 5 -11 0 -14 -3 -6 -6z"/>
<path d="M2094 3443 c15 -55 18 -63 27 -63 12 0 12 1 -6 44 -16 37 -30 50 -21
19z"/>
<path d="M3837 3446 c-4 -10 -1 -13 9 -9 7 3 14 9 14 14 0 14 -17 10 -23 -5z"/>
<path d="M3840 3410 c0 -5 5 -10 10 -10 6 0 10 5 10 10 0 6 -4 10 -10 10 -5 0
-10 -4 -10 -10z"/>
<path d="M4370 3405 c0 -8 9 -19 21 -25 20 -11 20 -11 4 14 -20 30 -25 32 -25
11z"/>
<path d="M1942 3390 c-18 -29 -15 -38 4 -12 9 13 14 25 12 27 -2 2 -9 -5 -16
-15z"/>
<path d="M3002 3349 c-39 -46 -51 -66 -46 -81 3 -12 2 -18 -3 -15 -5 3 -15
-13 -22 -37 -12 -42 -5 -125 19 -216 12 -46 81 -112 142 -136 53 -21 58 -29
27 -37 -30 -8 -78 12 -134 56 -60 47 -70 65 -79 137 -4 30 -9 70 -12 88 l-6
32 -39 -54 c-79 -111 -99 -157 -99 -235 0 -80 12 -114 47 -130 29 -13 75 -15
54 -2 -9 6 12 11 60 16 41 4 101 18 134 32 33 13 76 29 94 35 37 11 80 38 81
51 0 4 -18 7 -39 7 -22 0 -43 5 -46 11 -10 15 -4 18 38 21 20 1 37 6 37 10 0
8 45 1 63 -9 9 -5 -12 -27 -33 -36 -13 -4 -12 -6 1 -6 22 -1 161 57 179 74 16
17 3 20 -20 5 -9 -6 -17 -5 -21 2 -9 14 -39 -7 -39 -27 0 -10 -13 -9 -55 6
-30 10 -61 19 -70 19 -8 0 -15 5 -15 10 0 6 -8 10 -17 10 -15 0 -16 -2 -3 -10
13 -9 13 -11 0 -20 -20 -13 -39 -12 -20 1 12 9 12 10 -3 5 -10 -3 -21 -6 -23
-6 -3 0 -2 -4 1 -10 9 -15 -41 -23 -64 -10 -44 23 -91 75 -91 100 0 20 -2 22
-10 10 -9 -13 -10 -13 -9 0 0 8 4 23 8 33 6 17 8 18 20 3 8 -9 11 -19 8 -23
-9 -8 12 -43 25 -43 9 0 9 3 0 12 -16 16 -15 75 1 82 10 5 10 7 0 12 -18 8
-16 27 2 20 17 -6 20 15 4 31 -8 8 -8 13 0 17 6 4 11 2 11 -4 0 -18 28 -42 35
-30 4 6 11 8 16 5 5 -4 10 2 10 12 4 68 8 84 19 98 7 9 19 14 27 11 9 -4 13 3
12 22 0 24 -1 25 -9 7 -6 -13 -9 -15 -9 -5 -1 13 -2 13 -11 0 -8 -13 -10 -12
-10 3 0 9 5 17 10 17 6 0 10 5 10 11 0 5 -4 8 -9 5 -14 -9 -24 45 -11 58 8 8
9 6 4 -9 -6 -17 -5 -18 7 -7 17 16 1 46 -29 50 -15 2 -21 -3 -24 -20 -2 -13
-7 -21 -13 -18 -5 3 -9 15 -7 28 1 12 1 22 0 22 -2 0 -27 -28 -56 -61z m10
-129 c-4 -25 -9 -30 -31 -29 l-26 0 23 16 c12 8 22 22 22 29 0 8 4 14 8 14 5
0 7 -13 4 -30z m-75 -52 c-3 -7 -5 -2 -5 12 0 14 2 19 5 13 2 -7 2 -19 0 -25z
m-170 -380 c-3 -8 -6 -5 -6 6 -1 11 2 17 5 13 3 -3 4 -12 1 -19z m313 12 c0
-5 -4 -10 -10 -10 -11 0 -10 0 -57 -11 -18 -4 -33 -4 -33 0 0 6 45 20 93 30 4
0 7 -3 7 -9z m-280 -55 c11 -13 10 -14 -4 -9 -9 3 -16 10 -16 15 0 13 6 11 20
-6z"/>
<path d="M3530 3385 c0 -8 5 -15 10 -15 6 0 10 7 10 15 0 8 -4 15 -10 15 -5 0
-10 -7 -10 -15z"/>
<path d="M3935 3390 c3 -5 8 -10 11 -10 2 0 4 5 4 10 0 6 -5 10 -11 10 -5 0
-7 -4 -4 -10z"/>
<path d="M3791 3376 c-12 -14 -5 -46 10 -46 5 0 9 9 9 20 0 11 5 20 11 20 5 0
7 5 4 10 -9 14 -20 13 -34 -4z"/>
<path d="M3505 3360 c3 -5 8 -10 11 -10 2 0 4 5 4 10 0 6 -5 10 -11 10 -5 0
-7 -4 -4 -10z"/>
<path d="M3895 3360 c-3 -5 1 -10 9 -10 9 0 16 5 16 10 0 6 -4 10 -9 10 -6 0
-13 -4 -16 -10z"/>
<path d="M4425 3360 c-4 -6 9 -10 32 -9 30 0 34 2 18 9 -27 12 -43 12 -50 0z"/>
<path d="M1630 3340 c0 -5 5 -10 10 -10 6 0 10 5 10 10 0 6 -4 10 -10 10 -5 0
-10 -4 -10 -10z"/>
<path d="M1899 3333 c-8 -9 -48 -42 -90 -73 -87 -65 -277 -150 -335 -150 -24
0 -34 -4 -32 -12 6 -16 70 -64 139 -103 29 -16 78 -45 108 -62 31 -18 59 -33
64 -33 16 0 6 17 -17 28 -13 6 -32 24 -42 41 -13 23 -24 30 -40 27 -30 -6 -65
4 -58 15 3 5 16 6 30 3 18 -5 24 -2 24 10 0 12 -6 15 -25 10 -21 -5 -25 -3
-25 16 0 13 -8 29 -17 36 -17 12 -17 12 2 11 11 -1 26 -9 33 -17 8 -8 11 -9 7
-2 -4 8 1 12 14 12 12 0 30 9 41 20 12 12 25 18 31 15 5 -4 9 -3 8 2 -4 26 16
55 43 60 16 3 26 8 23 11 -3 3 27 39 67 79 40 40 70 73 66 73 -3 0 -12 -8 -19
-17z"/>
<path d="M2300 3340 c0 -5 5 -10 11 -10 5 0 7 5 4 10 -3 6 -8 10 -11 10 -2 0
-4 -4 -4 -10z"/>
<path d="M4590 3335 l-35 -13 30 -1 c17 0 39 6 49 14 25 19 5 19 -44 0z"/>
<path d="M2065 3330 c-3 -5 -2 -10 4 -10 5 0 13 5 16 10 3 6 2 10 -4 10 -5 0
-13 -4 -16 -10z"/>
<path d="M2830 3324 c0 -8 5 -12 10 -9 6 3 10 10 10 16 0 5 -4 9 -10 9 -5 0
-10 -7 -10 -16z"/>
<path d="M2480 3320 c0 -5 5 -10 11 -10 5 0 7 5 4 10 -3 6 -8 10 -11 10 -2 0
-4 -4 -4 -10z"/>
<path d="M2316 3308 c3 -4 9 -8 15 -8 5 0 9 4 9 8 0 5 -7 9 -15 9 -8 0 -12 -4
-9 -9z"/>
<path d="M2775 3299 c-4 -5 -2 -9 4 -9 5 0 16 -2 24 -5 7 -3 14 0 14 8 0 15
-34 20 -42 6z"/>
<path d="M2720 3281 c-18 -12 -11 -20 21 -23 16 -2 24 2 24 12 0 18 -24 24
-45 11z"/>
<path d="M2670 3260 c-13 -8 -13 -10 2 -10 9 0 20 5 23 10 8 13 -5 13 -25 0z"/>
<path d="M4360 3238 c-32 -17 -46 -30 -48 -48 -5 -34 -17 -47 -53 -54 -25 -5
-30 -10 -27 -28 2 -13 9 -22 16 -20 10 2 10 -2 2 -18 -13 -25 -39 -180 -33
-196 2 -6 -10 -51 -27 -100 -17 -49 -31 -105 -31 -124 0 -19 -7 -63 -15 -97
-17 -67 -14 -105 4 -63 6 14 27 101 47 195 20 93 39 173 41 177 3 4 7 40 10
80 3 50 11 81 24 100 11 15 20 32 20 38 0 5 4 10 8 10 4 0 0 -35 -9 -77 -10
-43 -22 -125 -28 -183 -6 -58 -22 -143 -36 -190 -26 -86 -46 -258 -29 -247 5
3 8 -32 6 -83 -4 -93 8 -196 32 -270 l15 -45 -6 53 -6 54 45 -7 c45 -7 45 -7
42 21 -1 15 -8 30 -14 34 -8 5 -9 10 -2 14 6 4 9 13 5 22 -3 8 3 21 13 29 11
8 14 15 8 15 -16 0 -5 50 11 50 20 0 25 38 8 70 -9 19 -12 38 -6 52 4 13 8 39
10 58 3 53 14 104 25 117 13 16 1 34 -18 26 -13 -5 -15 -2 -8 18 5 13 9 49 9
81 0 31 3 60 8 64 15 15 6 54 -18 80 -14 16 -25 37 -24 48 1 12 -1 28 -5 37
-4 8 -2 27 3 41 6 17 6 29 -1 36 -8 8 -6 22 7 52 10 22 22 40 27 40 4 0 8 11
8 25 0 26 33 67 61 77 8 3 11 8 8 12 -10 10 -77 -51 -95 -86 -20 -39 -35 -27
-21 18 7 23 21 41 41 51 55 28 85 63 53 63 -7 0 -33 -10 -57 -22z m-90 -838
c0 -5 -7 -10 -15 -10 -8 0 -15 5 -15 10 0 6 7 10 15 10 8 0 15 -4 15 -10z"/>
<path d="M2098 3213 c6 -2 12 -12 12 -21 0 -15 2 -15 10 -2 15 23 12 30 -12
29 -13 0 -17 -3 -10 -6z"/>
<path d="M3820 3210 c0 -5 5 -10 11 -10 5 0 7 5 4 10 -3 6 -8 10 -11 10 -2 0
-4 -4 -4 -10z"/>
<path d="M3857 3203 c-11 -10 -8 -53 3 -53 6 0 10 14 10 30 0 31 -2 35 -13 23z"/>
<path d="M2067 3180 c-9 -11 -17 -25 -17 -30 0 -6 -7 -10 -15 -10 -18 0 -20
-17 -3 -22 6 -2 -6 -21 -28 -42 -58 -56 -133 -85 -158 -61 -10 10 -16 11 -25
2 -18 -18 -13 -27 18 -27 36 0 50 -17 19 -23 -21 -4 -20 -4 4 -6 85 -4 249
124 248 194 -1 15 -6 12 -21 -15 -11 -19 -17 -26 -14 -15 10 32 18 75 13 75
-2 0 -11 -9 -21 -20z"/>
<path d="M2640 3178 c-25 -5 -58 -13 -75 -18 -28 -9 -19 -9 155 3 14 1 25 7
25 12 0 14 -50 15 -105 3z"/>
<path d="M2781 3154 c-11 -15 -21 -30 -21 -34 0 -4 -13 -21 -30 -38 -16 -18
-30 -27 -30 -21 0 17 -23 -13 -42 -53 -10 -21 -24 -38 -31 -38 -7 0 -34 -13
-60 -30 -26 -16 -57 -30 -67 -30 -11 0 -47 15 -80 32 -48 26 -64 42 -81 77
-24 51 -33 50 -17 -2 19 -61 135 -127 223 -127 52 0 55 -1 45 -19 -28 -54
-125 -40 -222 32 -37 27 -44 17 -20 -30 11 -21 29 -69 42 -107 21 -65 88 -217
90 -206 1 3 3 16 5 30 5 47 58 155 103 212 31 41 43 64 39 78 -3 13 1 28 12
39 29 29 67 83 120 170 51 83 62 116 22 65z m-141 -208 c0 -2 -7 -7 -16 -10
-8 -3 -12 -2 -9 4 6 10 25 14 25 6z"/>
<path d="M4030 3170 c-8 -5 -10 -10 -5 -10 6 0 17 5 25 10 8 5 11 10 5 10 -5
0 -17 -5 -25 -10z"/>
<path d="M2172 3153 c3 -37 -2 -53 -17 -53 -14 0 -36 -39 -34 -58 3 -18 -2
-26 -10 -14 -6 10 -20 4 -57 -24 -27 -21 -78 -49 -114 -63 -77 -29 -122 -53
-127 -67 -2 -6 15 -20 37 -33 22 -12 40 -26 40 -30 0 -5 28 -18 63 -31 34 -12
80 -29 102 -39 51 -23 91 -13 141 34 40 38 39 29 16 179 -7 47 -8 49 -24 32
-17 -17 -18 -16 -18 4 0 12 4 19 9 16 5 -4 4 10 -2 29 -7 23 -15 34 -24 31 -7
-3 -13 -1 -13 5 0 5 8 13 18 16 9 4 22 13 28 21 6 8 16 12 22 8 7 -4 12 -2 12
3 0 6 -4 11 -9 11 -5 0 -13 9 -16 20 -8 25 -25 27 -23 3z m22 -227 c-3 -9 -10
-16 -15 -16 -5 0 -4 9 3 20 14 22 21 20 12 -4z m-34 -70 c0 -3 -4 -8 -10 -11
-5 -3 -10 -1 -10 4 0 6 5 11 10 11 6 0 10 -2 10 -4z"/>
<path d="M1020 3145 c0 -8 2 -15 4 -15 2 0 6 7 10 15 3 8 1 15 -4 15 -6 0 -10
-7 -10 -15z"/>
<path d="M1351 3126 c-7 -8 -8 -17 -3 -20 6 -3 13 1 16 10 9 23 2 28 -13 10z"/>
<path d="M695 3100 c-3 -5 1 -10 9 -10 9 0 16 5 16 10 0 6 -4 10 -9 10 -6 0
-13 -4 -16 -10z"/>
<path d="M3853 3103 c-7 -2 -13 -13 -13 -24 0 -16 3 -17 25 -7 35 16 23 46
-12 31z"/>
<path d="M3925 3080 c-3 -5 1 -10 9 -10 8 0 18 5 21 10 3 6 -1 10 -9 10 -8 0
-18 -4 -21 -10z"/>
<path d="M2219 3068 c0 -7 -2 -23 -3 -35 -3 -25 2 -27 22 -15 9 7 10 15 3 35
-11 29 -20 35 -22 15z"/>
<path d="M3573 3043 c-24 -9 -13 -23 17 -23 21 0 30 -5 30 -16 0 -11 5 -14 16
-10 9 3 20 6 25 6 5 0 9 5 9 10 0 6 -11 10 -24 10 -13 0 -29 7 -36 15 -13 16
-17 17 -37 8z"/>
<path d="M3925 3040 c-3 -6 1 -7 9 -4 18 7 21 14 7 14 -6 0 -13 -4 -16 -10z"/>
<path d="M991 3024 c0 -11 3 -14 6 -6 3 7 2 16 -1 19 -3 4 -6 -2 -5 -13z"/>
<path d="M3875 3010 c-3 -5 -1 -10 4 -10 6 0 11 5 11 10 0 6 -2 10 -4 10 -3 0
-8 -4 -11 -10z"/>
<path d="M3820 2991 c0 -11 26 -22 34 -14 12 12 5 23 -14 23 -11 0 -20 -4 -20
-9z"/>
<path d="M3430 2975 c0 -15 27 -28 42 -18 7 3 8 1 4 -5 -4 -7 -15 -12 -24 -13
-9 0 -12 -3 -6 -5 6 -2 26 2 45 10 24 11 28 15 14 16 -11 0 -32 7 -47 14 -23
12 -28 12 -28 1z"/>
<path d="M3047 2954 c6 -15 23 -19 23 -5 0 5 -7 11 -14 14 -10 4 -13 1 -9 -9z"/>
<path d="M1490 2954 c0 -17 17 -36 24 -26 3 5 -1 15 -9 22 -8 7 -15 9 -15 4z"/>
<path d="M3100 2935 c7 -8 17 -12 22 -9 6 4 5 10 -3 15 -22 14 -33 10 -19 -6z"/>
<path d="M4350 2929 c6 -11 16 -19 21 -17 17 6 12 22 -10 30 -19 7 -20 5 -11
-13z"/>
<path d="M2281 2925 c-1 -11 -3 -47 -5 -80 -1 -33 -6 -67 -10 -76 -11 -24 23
-33 46 -13 17 17 18 16 12 -14 -5 -22 -3 -32 6 -32 7 0 10 -7 7 -15 -4 -8 -2
-17 2 -20 14 -8 1 -42 -15 -42 -10 0 -11 4 -3 14 9 10 7 13 -10 13 -14 0 -20
-4 -15 -12 5 -8 2 -9 -12 -3 -40 17 -67 18 -62 4 6 -19 75 -55 119 -63 l36 -6
-8 57 c-8 53 -24 125 -36 163 -4 13 -5 13 -13 0 -7 -11 -10 -3 -10 26 0 22 -4
44 -9 50 -5 5 -11 23 -14 39 -2 17 -5 22 -6 10z"/>
<path d="M184 2918 c-11 -18 7 -22 40 -10 21 8 42 9 57 4 20 -8 134 0 119 8
-15 7 -212 5 -216 -2z"/>
<path d="M3455 2884 c-96 -37 -102 -41 -92 -50 4 -4 17 0 30 9 34 22 131 49
150 41 10 -3 17 -1 17 5 0 6 -5 11 -11 11 -5 0 -7 5 -4 10 8 13 14 15 -90 -26z"/>
<path d="M1569 2896 c16 -20 51 -27 51 -11 0 14 -21 25 -47 25 -12 0 -13 -3
-4 -14z"/>
<path d="M3710 2890 c0 -5 5 -10 10 -10 6 0 10 5 10 10 0 6 -4 10 -10 10 -5 0
-10 -4 -10 -10z"/>
<path d="M1654 2855 c11 -8 25 -15 30 -15 6 0 2 7 -8 15 -11 8 -25 15 -30 15
-6 0 -2 -7 8 -15z"/>
<path d="M3591 2833 c-1 -18 -5 -33 -11 -33 -5 0 -10 -11 -10 -25 0 -14 4 -25
9 -25 11 0 26 83 18 102 -3 7 -6 -2 -6 -19z"/>
<path d="M1700 2845 c0 -2 10 -10 23 -16 20 -11 21 -11 8 4 -13 16 -31 23 -31
12z"/>
<path d="M3662 2830 c0 -14 2 -19 5 -12 2 6 2 18 0 25 -3 6 -5 1 -5 -13z"/>
<path d="M2621 2781 c-11 -27 -21 -53 -21 -56 0 -4 -13 -24 -29 -44 -15 -20
-34 -47 -41 -61 l-13 -25 27 24 c30 28 69 94 97 164 25 63 7 61 -20 -2z"/>
<path d="M1630 2809 c0 -5 5 -7 10 -4 6 3 10 8 10 11 0 2 -4 4 -10 4 -5 0 -10
-5 -10 -11z"/>
<path d="M3765 2810 c-3 -5 -1 -10 4 -10 6 0 11 5 11 10 0 6 -2 10 -4 10 -3 0
-8 -4 -11 -10z"/>
<path d="M3237 2747 c-36 -96 -47 -140 -46 -175 l1 -37 10 45 c5 25 22 80 37
123 16 42 25 79 21 82 -4 2 -14 -14 -23 -38z"/>
<path d="M3388 2773 c-16 -2 -28 -8 -28 -12 0 -11 49 -1 56 10 3 5 4 8 2 8 -2
-1 -15 -4 -30 -6z"/>
<path d="M3884 2764 c19 -63 24 -128 22 -284 -1 -106 -6 -189 -13 -210 -7 -19
-22 -75 -33 -125 -12 -49 -28 -105 -37 -124 -9 -19 -19 -46 -23 -60 -5 -18
-13 -26 -28 -25 -24 1 -29 -15 -11 -33 9 -9 3 -14 -22 -21 -24 -7 -28 -10 -12
-11 12 -1 25 -5 28 -11 3 -5 15 -10 26 -10 11 0 22 -6 25 -14 3 -8 13 -12 23
-9 19 5 132 -47 165 -76 12 -10 20 -12 23 -5 2 6 16 9 31 8 l27 -4 -30 15
c-16 8 -39 14 -50 15 -11 0 -30 6 -41 14 -11 8 -52 27 -90 42 -82 32 -94 41
-74 54 10 7 11 10 3 10 -7 0 -13 5 -13 11 0 6 7 9 14 6 10 -4 13 -1 9 9 -3 8
1 14 9 14 8 0 15 6 15 13 1 6 10 41 22 76 12 35 21 72 21 82 0 10 4 20 9 23 5
3 12 23 16 43 4 21 11 40 16 43 23 15 26 295 3 455 -3 28 -7 61 -8 74 0 13 -7
26 -15 29 -9 3 -11 -1 -7 -14z"/>
<path d="M1655 2730 c3 -5 8 -10 11 -10 2 0 4 5 4 10 0 6 -5 10 -11 10 -5 0
-7 -4 -4 -10z"/>
<path d="M1880 2715 c0 -15 4 -24 10 -20 6 3 10 12 10 20 0 8 -4 17 -10 20 -6
4 -10 -5 -10 -20z"/>
<path d="M3304 2728 c-4 -6 -3 -8 4 -4 5 3 12 1 14 -6 3 -8 7 -6 11 5 7 20
-17 24 -29 5z"/>
<path d="M2560 2720 c0 -5 5 -10 10 -10 6 0 10 5 10 10 0 6 -4 10 -10 10 -5 0
-10 -4 -10 -10z"/>
<path d="M3296 2685 c-9 -26 -7 -32 5 -12 6 10 9 21 6 23 -2 3 -7 -2 -11 -11z"/>
<path d="M1891 2654 c0 -16 4 -38 9 -49 6 -13 7 -5 3 25 -7 53 -13 66 -12 24z"/>
<path d="M2020 2660 c0 -5 7 -10 15 -10 8 0 15 -4 15 -9 0 -5 7 -12 16 -15 14
-6 15 -4 4 9 -19 23 -50 38 -50 25z"/>
<path d="M2645 2645 c-25 -12 -26 -14 -5 -9 14 4 29 10 35 15 12 12 5 11 -30
-6z"/>
<path d="M3100 2639 c0 -5 5 -7 10 -4 6 3 10 8 10 11 0 2 -4 4 -10 4 -5 0 -10
-5 -10 -11z"/>
<path d="M3254 2615 c-7 -39 1 -85 16 -85 6 0 10 5 10 10 0 6 -5 10 -11 10 -7
0 -9 16 -4 50 8 57 -1 69 -11 15z"/>
<path d="M3290 2626 c0 -9 5 -16 10 -16 6 0 10 4 10 9 0 6 -4 13 -10 16 -5 3
-10 -1 -10 -9z"/>
<path d="M4423 2616 c-19 -9 -32 -26 -19 -26 18 0 65 24 60 31 -6 11 -12 10
-41 -5z"/>
<path d="M2170 2592 c0 -4 9 -8 19 -8 11 0 17 4 15 8 -3 4 -12 8 -20 8 -8 0
-14 -4 -14 -8z"/>
<path d="M2550 2590 c0 -5 4 -10 9 -10 6 0 13 5 16 10 3 6 -1 10 -9 10 -9 0
-16 -4 -16 -10z"/>
<path d="M3281 2584 c0 -11 3 -14 6 -6 3 7 2 16 -1 19 -3 4 -6 -2 -5 -13z"/>
<path d="M2865 2549 c-4 -6 -5 -12 -2 -15 2 -3 7 2 10 11 7 17 1 20 -8 4z"/>
<path d="M2284 2536 c11 -9 23 -16 28 -16 4 0 8 -8 8 -19 0 -11 -12 -23 -30
-31 -17 -7 -29 -15 -26 -17 6 -6 86 38 86 47 0 3 -19 16 -42 29 -24 12 -34 15
-24 7z"/>
<path d="M3290 2520 c0 -16 5 -30 10 -30 6 0 10 14 10 30 0 17 -4 30 -10 30
-5 0 -10 -13 -10 -30z"/>
<path d="M2572 2508 c4 -27 16 -48 27 -48 15 0 8 33 -11 52 -18 18 -19 18 -16
-4z"/>
<path d="M259 2459 c-6 -3 7 -8 30 -11 22 -2 41 -1 41 3 0 10 -58 17 -71 8z"/>
<path d="M185 2430 c-13 -5 -14 -9 -5 -9 8 0 24 4 35 9 13 5 14 9 5 9 -8 0
-24 -4 -35 -9z"/>
<path d="M2175 2424 c-49 -25 -54 -38 -5 -14 50 25 58 30 44 30 -5 0 -22 -7
-39 -16z"/>
<path d="M2489 2429 c-12 -8 -11 -11 2 -22 26 -19 76 -108 88 -154 7 -24 15
-43 20 -43 4 0 18 12 32 26 13 14 40 34 59 44 53 27 50 54 -8 75 -26 10 -56
23 -67 30 -50 30 -113 52 -126 44z"/>
<path d="M4436 2431 c-15 -6 -16 -10 -7 -15 8 -5 20 -2 29 8 17 17 9 19 -22 7z"/>
<path d="M2325 2420 c-11 -5 -38 -16 -59 -25 -46 -18 -42 -32 5 -16 18 6 34 9
36 7 7 -6 -16 -47 -40 -74 l-21 -22 -34 32 -35 33 26 -35 c14 -19 35 -56 46
-83 11 -26 22 -47 24 -47 1 0 1 17 -1 38 -4 34 -3 35 10 18 13 -17 15 -15 28
25 7 24 13 65 14 92 0 26 4 47 8 47 5 0 8 -5 8 -11 0 -5 5 -7 10 -4 12 7 14
35 3 34 -5 0 -17 -4 -28 -9z"/>
<path d="M2425 2392 c-26 -19 -112 -172 -96 -172 5 0 11 10 14 22 4 12 9 19
13 15 7 -6 35 43 38 65 1 3 5 10 10 15 5 4 6 3 2 -4 -3 -6 -1 -15 5 -19 8 -5
10 1 7 18 -6 34 14 51 37 30 17 -16 17 -16 0 11 -9 15 -18 27 -19 27 0 0 -6
-4 -11 -8z"/>
<path d="M3281 2358 c43 -94 60 -124 55 -97 -8 36 -56 139 -66 139 -4 0 1 -19
11 -42z"/>
<path d="M4497 2368 c-4 -13 -7 -25 -7 -28 -1 -2 4 -6 11 -9 8 -2 10 2 6 13
-6 14 -3 16 16 11 15 -4 18 -3 9 3 -8 5 -13 13 -12 18 4 20 -18 13 -23 -8z"/>
<path d="M3197 2336 c-5 -21 -6 -40 -3 -43 9 -10 18 24 14 54 -3 26 -4 25 -11
-11z"/>
<path d="M2860 2340 c0 -5 5 -10 10 -10 6 0 10 5 10 10 0 6 -4 10 -10 10 -5 0
-10 -4 -10 -10z"/>
<path d="M2490 2305 c0 -5 5 -17 10 -25 5 -8 10 -10 10 -5 0 6 -5 17 -10 25
-5 8 -10 11 -10 5z"/>
<path d="M4733 2293 c9 -2 23 -2 30 0 6 3 -1 5 -18 5 -16 0 -22 -2 -12 -5z"/>
<path d="M2025 2280 c-8 -13 55 -31 73 -21 16 9 42 -8 42 -28 0 -6 5 -11 10
-11 6 0 10 -5 10 -11 0 -5 -6 -7 -12 -3 -10 6 -10 4 0 -8 10 -13 9 -17 -10
-23 -20 -6 -21 -8 -5 -12 21 -5 18 -28 -4 -28 -22 0 -31 -34 -14 -51 21 -21
19 -45 -5 -51 -22 -6 -27 -28 -9 -39 7 -4 20 4 30 17 33 43 14 -34 -24 -99
-23 -39 -41 -30 -50 23 -3 20 -15 47 -26 62 -12 14 -21 37 -21 50 0 13 -4 22
-10 18 -5 -3 -26 10 -47 28 -41 37 -74 57 -94 57 -7 0 8 -14 34 -30 63 -42
111 -98 130 -151 8 -24 21 -62 29 -83 16 -47 31 -54 54 -27 10 11 21 18 26 15
4 -3 8 3 8 13 0 22 36 70 46 61 3 -4 -3 -23 -15 -43 -26 -45 -26 -55 0 -55 13
0 18 -4 13 -12 -5 -8 0 -9 17 -5 13 4 30 7 38 7 8 0 11 6 7 15 -3 9 0 15 10
15 8 0 12 5 8 11 -3 6 -17 8 -29 5 -22 -6 -23 -4 -21 43 3 47 35 111 57 111 5
0 9 7 9 15 0 8 9 20 20 27 23 15 27 40 5 32 -8 -4 -15 -1 -15 4 0 6 -13 10
-29 10 -17 -1 -27 -6 -25 -12 3 -7 -7 -13 -21 -14 -27 -2 -35 21 -11 35 10 6
12 20 6 56 -10 70 -33 88 -114 92 -36 2 -68 0 -71 -5z m225 -207 c0 -3 -11
-30 -25 -60 -18 -38 -31 -53 -45 -53 -19 0 -19 2 -6 34 8 19 12 37 8 40 -3 3
2 6 11 6 9 0 21 9 27 20 10 19 30 28 30 13z"/>
<path d="M4410 2248 c0 -17 3 -19 9 -9 5 7 15 17 22 22 10 6 8 9 -8 9 -17 0
-23 -6 -23 -22z"/>
<path d="M2511 2258 c-1 -4 3 -18 8 -31 13 -33 3 -41 -27 -21 -13 8 -26 14
-28 11 -3 -3 16 -16 41 -30 46 -26 46 -26 39 -4 -10 32 -32 83 -33 75z"/>
<path d="M2775 2246 c-65 -13 -144 -59 -146 -85 -2 -31 3 -55 17 -77 8 -12 14
-26 13 -30 -3 -14 12 -44 22 -44 5 0 9 7 9 16 0 9 -5 12 -12 8 -8 -5 -9 -2 -5
10 4 10 7 22 7 27 0 5 7 9 16 9 8 0 12 -4 9 -10 -3 -6 4 -10 17 -10 13 0 30
-6 36 -12 8 -8 15 -9 20 -3 7 10 42 28 76 39 11 4 23 1 28 -6 5 -9 8 -4 8 14
0 14 -5 28 -12 30 -6 2 -8 10 -4 17 5 7 14 10 21 7 7 -2 16 2 19 10 3 8 12 14
21 14 8 0 23 5 33 11 13 8 32 4 86 -20 38 -18 70 -30 72 -28 4 4 -130 78 -161
90 -19 7 -19 7 -1 -8 18 -14 18 -15 -9 -25 -34 -13 -65 -4 -65 18 0 15 2 15
10 2 8 -13 11 -13 26 2 23 23 9 38 -30 31 -19 -3 -36 -1 -40 6 -4 6 -10 10
-14 10 -4 -1 -34 -7 -67 -13z m-55 -67 c0 -5 -7 -9 -16 -9 -9 0 -14 -7 -12
-17 1 -10 -1 -24 -5 -31 -5 -7 -5 -12 0 -11 4 1 15 1 23 0 13 -1 13 -2 0 -11
-27 -17 -43 -12 -37 12 4 12 1 28 -4 35 -8 8 -7 16 2 26 15 15 49 20 49 6z
m148 -6 c-5 -24 -25 -27 -31 -3 -4 15 0 20 15 20 13 0 18 -6 16 -17z"/>
<path d="M262 2234 c-12 -8 -22 -20 -22 -26 0 -6 8 -4 18 5 10 10 28 17 40 17
12 0 22 5 22 10 0 15 -33 12 -58 -6z"/>
<path d="M4497 2233 c-14 -13 -6 -21 18 -19 28 1 33 11 9 20 -19 7 -19 7 -27
-1z"/>
<path d="M1870 2215 c-7 -8 -30 -20 -52 -27 -40 -12 -40 -21 2 -33 22 -7 23
-6 11 9 -11 14 -11 16 2 16 18 0 64 36 56 44 -3 4 -12 0 -19 -9z"/>
<path d="M3350 2209 c0 -5 -4 -8 -9 -4 -5 3 -12 1 -15 -4 -3 -5 3 -11 14 -14
15 -4 20 0 20 14 0 10 -2 19 -5 19 -3 0 -5 -5 -5 -11z"/>
<path d="M4390 2207 c0 -9 4 -18 9 -21 5 -4 8 1 7 9 -3 21 -16 31 -16 12z"/>
<path d="M4430 2210 c0 -5 5 -10 10 -10 6 0 10 5 10 10 0 6 -4 10 -10 10 -5 0
-10 -4 -10 -10z"/>
<path d="M4504 2199 c-3 -6 -1 -16 5 -22 8 -8 11 -5 11 11 0 24 -5 28 -16 11z"/>
<path d="M200 2175 c-7 -9 -8 -15 -2 -15 5 0 12 7 16 15 3 8 4 15 2 15 -2 0
-9 -7 -16 -15z"/>
<path d="M3240 2171 c0 -6 4 -13 10 -16 6 -3 7 1 4 9 -7 18 -14 21 -14 7z"/>
<path d="M2353 2163 c-17 -2 -37 -11 -43 -19 -14 -16 1 -19 17 -3 8 8 15 5 25
-10 10 -14 21 -18 36 -14 12 3 22 9 22 14 0 5 -8 6 -17 3 -14 -5 -15 -4 -4 4
16 11 53 4 45 -9 -3 -5 7 -9 21 -9 20 0 26 -4 21 -16 -3 -8 -2 -12 4 -9 5 3
14 -3 19 -13 6 -11 20 -22 32 -25 17 -5 12 4 -22 39 -39 40 -99 77 -118 72 -3
0 -20 -3 -38 -5z"/>
<path d="M4387 2163 c-4 -3 -7 -11 -7 -17 0 -6 5 -5 12 2 6 6 9 14 7 17 -3 3
-9 2 -12 -2z"/>
<path d="M3018 2119 c-7 -5 -21 -9 -31 -9 -10 0 -25 -7 -34 -15 -8 -9 -20 -14
-26 -12 -6 2 -26 -13 -45 -33 -24 -27 -40 -36 -59 -34 -19 2 -23 -1 -18 -13 5
-14 -33 -64 -42 -55 -11 9 -33 -1 -31 -14 2 -10 -3 -19 -9 -21 -8 -3 -13 4
-13 16 0 11 -4 22 -9 25 -5 3 -5 -14 0 -40 5 -25 8 -71 6 -101 -2 -62 17 -86
29 -36 4 15 16 41 26 56 11 15 21 39 23 53 1 14 14 38 29 53 14 15 26 32 26
37 0 6 16 18 35 27 19 9 35 23 35 32 0 8 5 15 11 15 5 0 7 -6 3 -12 -4 -7 1
-5 12 4 11 10 50 27 87 38 41 13 67 26 67 35 0 15 -50 18 -72 4z"/>
<path d="M3335 2120 c-3 -5 1 -10 9 -10 9 0 16 5 16 10 0 6 -4 10 -9 10 -6 0
-13 -4 -16 -10z"/>
<path d="M3400 2090 c19 -11 42 -19 50 -20 8 0 -2 9 -23 20 -20 11 -43 20 -49
20 -7 -1 3 -9 22 -20z"/>
<path d="M4361 2094 c0 -11 3 -14 6 -6 3 7 2 16 -1 19 -3 4 -6 -2 -5 -13z"/>
<path d="M575 2090 c-3 -5 1 -10 9 -10 8 0 18 5 21 10 3 6 -1 10 -9 10 -8 0
-18 -4 -21 -10z"/>
<path d="M2450 2069 c0 -10 24 -39 33 -39 3 0 3 9 0 19 -5 21 -33 37 -33 20z"/>
<path d="M1830 2061 c0 -17 21 -24 33 -12 9 9 7 10 -7 5 -13 -5 -17 -4 -12 4
4 7 2 12 -3 12 -6 0 -11 -4 -11 -9z"/>
<path d="M3130 2050 c-94 -12 -157 -39 -234 -100 -119 -94 -138 -140 -105
-240 10 -30 19 -61 19 -68 0 -22 52 -92 63 -85 6 3 7 1 3 -6 -4 -6 4 -31 17
-56 14 -24 24 -52 21 -62 -5 -23 28 -89 41 -83 5 3 8 15 7 28 -3 16 2 22 17
22 11 0 25 9 31 20 6 11 16 17 22 14 7 -4 8 -2 4 5 -14 21 65 119 145 181 43
33 81 60 86 59 20 -3 33 2 33 15 0 8 22 28 50 46 27 18 47 36 44 41 -3 5 2 6
10 3 9 -4 18 1 22 10 3 9 10 13 15 11 5 -3 32 4 61 16 29 11 63 25 76 30 13 5
38 9 57 9 47 0 45 16 -9 69 -33 32 -50 42 -65 38 -12 -3 -21 -2 -21 3 0 4 -12
5 -26 2 -25 -5 -25 -5 12 -26 21 -12 41 -31 44 -42 3 -13 12 -20 23 -18 9 1
17 -1 17 -5 0 -7 -88 -39 -126 -45 -12 -2 -36 -11 -53 -21 -18 -9 -35 -14 -37
-12 -7 7 46 47 62 47 8 0 14 5 14 11 0 7 10 9 26 6 19 -3 24 -1 20 10 -3 8 -6
17 -6 19 0 2 -9 4 -20 4 -12 0 -33 8 -47 18 -15 9 -24 11 -20 5 16 -25 -21
-13 -37 12 -9 14 -25 25 -35 25 -10 0 -30 9 -44 20 -31 25 -67 26 -67 3 0 -14
-2 -14 -20 2 -15 14 -28 16 -57 10 -21 -4 -60 -10 -88 -14 -27 -4 -74 -19
-102 -34 -41 -20 -53 -23 -53 -12 0 20 69 62 115 71 21 4 50 13 64 20 34 18
71 18 98 -1 18 -13 22 -12 37 4 16 17 15 19 -6 25 -13 3 -27 5 -33 5 -5 -1
-35 -5 -65 -9z m250 -122 c0 -7 14 -24 31 -38 l30 -26 -28 -1 c-15 -1 -22 1
-15 4 10 4 7 9 -10 17 -23 12 -38 56 -19 56 6 0 11 -6 11 -12z m241 -15 c13
-16 12 -17 -3 -4 -17 13 -22 21 -14 21 2 0 10 -8 17 -17z m-727 -18 c-4 -8
-12 -15 -20 -15 -8 0 -14 -5 -14 -12 0 -6 -3 -8 -7 -4 -4 4 3 16 17 26 30 24
31 24 24 5z m-57 -62 c-3 -21 -10 -39 -15 -41 -6 -2 -9 -20 -6 -40 4 -35 4
-35 -7 -12 -15 33 -11 78 9 107 23 30 24 29 19 -14z m457 -35 c9 -12 16 -18
16 -13 0 6 4 4 9 -4 7 -11 13 -11 32 0 22 11 23 11 10 -4 -7 -10 -17 -17 -22
-17 -10 0 -109 -67 -190 -128 -57 -43 -149 -143 -149 -162 0 -6 -9 -20 -20
-32 -11 -12 -20 -16 -20 -9 0 6 -9 21 -20 33 -11 12 -20 29 -20 39 0 19 -16
51 -47 95 -12 17 -20 34 -17 37 3 3 0 21 -7 41 -11 31 -11 38 6 56 18 20 55
28 55 11 0 -5 12 -12 27 -16 15 -3 33 -14 40 -23 12 -16 14 -16 28 3 29 39 65
75 65 65 0 -5 4 -10 10 -10 5 0 6 7 3 17 -4 11 -3 14 5 9 7 -4 12 -2 12 6 0 9
3 9 10 -2 6 -9 10 -10 10 -3 0 17 48 31 107 32 43 1 55 -3 67 -21z"/>
<path d="M2925 1630 c-3 -5 -1 -10 4 -10 6 0 11 5 11 10 0 6 -2 10 -4 10 -3 0
-8 -4 -11 -10z"/>
<path d="M3299 2053 c14 -3 36 -12 50 -20 l26 -15 -24 21 c-13 12 -35 20 -50
20 -26 -2 -26 -2 -2 -6z"/>
<path d="M390 2046 c0 -2 7 -7 16 -10 8 -3 12 -2 9 4 -6 10 -25 14 -25 6z"/>
<path d="M1875 2041 c-3 -6 -1 -11 6 -11 15 0 49 -38 72 -80 10 -18 20 -66 24
-109 3 -42 10 -84 15 -94 7 -13 2 -30 -16 -64 -14 -25 -26 -47 -26 -50 0 -12
21 12 45 53 18 31 23 49 16 57 -5 7 -9 42 -9 78 0 89 -26 147 -94 207 -16 15
-28 20 -33 13z"/>
<path d="M2580 2040 c0 -5 5 -10 10 -10 6 0 10 5 10 10 0 6 -4 10 -10 10 -5 0
-10 -4 -10 -10z"/>
<path d="M3610 2035 c0 -15 18 -40 24 -34 3 3 -1 14 -9 25 -8 10 -14 15 -15 9z"/>
<path d="M386 2019 c2 -4 -18 -12 -44 -18 -56 -14 -121 -43 -122 -53 0 -11 9
-10 55 6 57 20 156 37 169 29 6 -3 8 -3 4 2 -4 4 -3 15 1 24 8 13 3 16 -29 16
-21 1 -37 -2 -34 -6z"/>
<path d="M470 2000 c-9 -6 -10 -10 -3 -10 6 0 15 5 18 10 8 12 4 12 -15 0z"/>
<path d="M2606 1973 c4 -21 13 -51 19 -67 13 -29 9 -66 -6 -66 -4 0 -32 6 -61
14 -60 15 -209 20 -217 8 -4 -5 -40 -18 -81 -30 -41 -11 -64 -21 -50 -21 14 0
58 8 98 19 105 28 253 18 353 -24 15 -7 14 2 -6 71 -26 90 -42 133 -50 133 -3
0 -3 -17 1 -37z"/>
<path d="M2363 1963 c-10 -21 -10 -28 0 -35 17 -11 20 -10 44 22 22 27 22 28
3 23 -11 -3 -20 0 -20 6 0 20 -15 11 -27 -16z"/>
<path d="M4277 1934 c-4 -4 -7 -21 -6 -38 1 -30 1 -30 9 -6 4 14 8 19 9 11 1
-8 3 -12 6 -9 3 3 2 15 -3 27 -4 12 -11 19 -15 15z"/>
<path d="M645 1920 c-3 -5 -1 -10 4 -10 6 0 11 5 11 10 0 6 -2 10 -4 10 -3 0
-8 -4 -11 -10z"/>
<path d="M3822 1894 c-11 -12 -9 -14 12 -14 13 0 31 -3 40 -6 9 -3 16 -2 16 4
0 18 -54 31 -68 16z"/>
<path d="M277 1872 c-10 -10 -14 -22 -10 -26 4 -3 7 -27 8 -51 0 -24 5 -49 10
-53 11 -11 115 16 115 29 0 4 -13 20 -28 36 -16 15 -27 34 -24 41 2 6 -1 12
-7 12 -6 0 -11 8 -11 17 0 14 -3 13 -16 -5 -8 -12 -20 -19 -26 -16 -7 5 -5 12
7 21 11 7 14 13 8 13 -5 0 -17 -8 -26 -18z m17 -87 c-4 -8 -8 -15 -10 -15 -2
0 -4 7 -4 15 0 8 4 15 10 15 5 0 7 -7 4 -15z"/>
<path d="M400 1852 c0 -12 -5 -22 -11 -22 -5 0 -7 -5 -3 -11 4 -7 10 -7 16 -1
6 6 17 8 24 5 21 -8 17 11 -6 32 -19 18 -20 17 -20 -3z"/>
<path d="M521 1851 c-7 -5 -12 -14 -10 -20 2 -6 10 -2 17 9 14 22 13 23 -7 11z"/>
<path d="M605 1850 c-4 -6 -3 -14 0 -20 9 -15 35 -12 35 4 0 17 -27 29 -35 16z"/>
<path d="M3990 1850 c8 -5 20 -10 25 -10 6 0 3 5 -5 10 -8 5 -19 10 -25 10 -5
0 -3 -5 5 -10z"/>
<path d="M3524 1775 c-51 -18 -109 -44 -130 -57 -22 -14 -47 -27 -56 -31 -10
-3 -18 -11 -18 -16 0 -13 26 -4 62 21 95 65 252 113 297 89 20 -11 30 -41 14
-41 -5 0 -24 -25 -42 -55 -36 -57 -48 -65 -57 -40 -8 19 -40 20 -47 1 -3 -7
-1 -18 5 -24 7 -7 -1 -14 -25 -21 -19 -7 -43 -21 -53 -32 -16 -17 -16 -22 -4
-29 22 -14 23 -14 75 35 78 74 64 42 -18 -42 -61 -62 -79 -75 -89 -65 -9 9 -9
12 2 12 7 0 11 2 8 5 -7 8 -38 -5 -38 -16 0 -5 7 -9 15 -9 8 0 15 -4 15 -9 0
-12 -59 -20 -66 -9 -10 15 -23 8 -26 -14 -2 -17 -9 -23 -25 -22 -13 0 -21 -2
-18 -4 10 -10 -87 -93 -101 -88 -8 3 -17 -1 -20 -8 -3 -8 -17 -17 -32 -21 -15
-3 -36 -14 -47 -24 -39 -34 -80 -20 -56 18 6 9 6 22 1 31 -6 11 -3 22 8 33 52
50 57 57 38 57 -9 0 -14 5 -11 10 4 6 10 8 15 5 8 -5 30 24 30 39 0 14 -19 4
-24 -11 -2 -10 -4 -7 -3 7 2 15 8 24 15 22 8 -1 11 2 7 7 -3 6 5 15 17 22 13
6 32 21 42 31 19 20 19 20 -5 13 -13 -4 -29 -12 -36 -17 -17 -14 -99 -137
-119 -181 -13 -28 -22 -36 -36 -31 -10 3 -18 1 -18 -5 0 -6 7 -11 15 -11 12 0
13 -4 5 -19 -13 -25 -13 -118 0 -126 6 -3 10 -16 10 -29 0 -12 7 -31 15 -42 8
-10 15 -30 15 -44 0 -32 15 -54 29 -46 6 4 11 2 11 -3 0 -6 -5 -11 -12 -11 -7
0 -5 -5 5 -12 8 -7 19 -33 22 -58 9 -58 71 -210 96 -233 10 -9 15 -12 10 -6
-13 16 10 69 30 69 10 0 20 8 22 18 4 12 5 11 6 -6 0 -12 -6 -25 -14 -28 -14
-6 -22 -34 -9 -34 6 0 63 52 130 118 19 19 34 38 34 43 0 16 -25 -1 -44 -30
-27 -40 -69 -64 -84 -49 -24 24 -13 56 28 85 29 21 40 35 40 55 0 15 7 34 16
42 20 21 25 20 17 -1 -3 -11 2 -7 13 7 10 14 19 29 19 33 0 4 6 12 14 16 18
12 5 32 -17 24 -14 -5 -15 -3 -4 8 16 18 15 29 -3 29 -8 0 -15 -4 -15 -10 0
-5 -4 -10 -10 -10 -5 0 -7 7 -4 15 4 8 12 15 20 15 13 0 15 5 18 43 1 6 10 21
22 32 34 33 81 109 76 123 -2 9 3 12 14 10 13 -2 18 2 16 14 -1 10 6 23 18 30
11 7 20 20 20 28 0 12 2 12 9 1 6 -9 11 -10 15 -2 11 17 26 13 19 -5 -4 -12
-2 -15 8 -12 13 5 14 24 4 56 -6 17 -35 15 -35 -3 0 -8 -9 -15 -20 -15 -11 0
-20 -4 -20 -10 0 -15 -43 -35 -48 -21 -2 6 -10 11 -18 11 -9 0 -12 5 -9 10 3
6 -2 10 -12 10 -17 1 -17 2 1 15 11 8 16 15 12 15 -14 0 17 32 49 52 17 10 26
18 22 18 -4 0 8 16 27 35 19 19 48 54 65 78 17 25 38 47 47 51 9 4 14 12 10
21 -3 9 3 24 14 35 11 11 19 23 18 28 -2 4 11 8 29 10 24 2 40 -5 69 -30 43
-38 42 -33 -6 38 -32 48 -38 52 -85 58 -83 10 -106 6 -201 -29z m-94 -460 c0
-21 -4 -24 -30 -22 -30 2 -43 17 -15 17 9 0 18 7 21 15 9 24 24 18 24 -10z"/>
<path d="M4300 1798 c0 -9 5 -20 10 -23 13 -8 13 5 0 25 -8 13 -10 13 -10 -2z"/>
<path d="M2360 1780 c0 -13 30 -13 50 0 11 7 7 10 -17 10 -18 0 -33 -4 -33
-10z"/>
<path d="M2460 1780 c14 -4 40 -8 58 -9 18 -1 40 -8 49 -17 9 -8 22 -13 31 -9
10 4 33 -14 69 -52 55 -61 67 -63 32 -7 -24 40 -66 67 -138 88 -57 17 -152 22
-101 6z"/>
<path d="M618 1773 c-10 -2 -18 -9 -18 -15 0 -5 -7 -7 -16 -4 -9 4 -24 0 -34
-9 -9 -8 -41 -24 -71 -34 -30 -11 -46 -20 -37 -20 9 -1 18 -6 20 -12 5 -15 58
10 58 28 0 7 5 13 10 13 6 0 10 -5 10 -11 0 -5 3 -8 8 -6 4 2 21 -2 37 -9 l30
-13 -27 -1 -26 0 13 -55 c7 -30 11 -55 9 -55 -2 0 -12 10 -24 22 -11 12 -22
19 -26 16 -3 -3 5 -15 17 -27 28 -26 15 -44 -31 -44 -19 0 -30 -5 -30 -15 0
-10 5 -12 18 -7 9 5 27 9 39 10 12 1 28 7 35 13 16 13 44 -1 34 -17 -4 -6 0
-11 8 -11 10 0 16 -9 16 -24 0 -13 3 -31 6 -39 4 -10 -2 -14 -22 -14 -18 0
-28 6 -31 18 -3 11 -10 19 -17 20 -6 0 -23 2 -38 4 -19 2 -27 -2 -31 -15 -3
-13 0 -16 16 -12 25 7 19 -19 -9 -33 -20 -10 -21 -45 -2 -45 5 0 8 -6 5 -14
-3 -8 3 -22 14 -32 23 -21 27 -69 5 -61 -10 4 -13 1 -9 -9 3 -9 12 -12 24 -9
14 5 17 2 13 -9 -11 -28 4 -17 31 21 14 21 25 34 25 29 0 -5 -11 -24 -25 -42
-14 -18 -25 -42 -25 -53 0 -24 0 -24 34 -11 20 7 24 6 19 -5 -3 -9 1 -15 8
-15 8 0 6 -5 -6 -14 -18 -13 -18 -14 3 -47 11 -19 33 -46 48 -59 l26 -25 -26
39 c-23 34 -36 70 -20 53 4 -3 15 4 26 16 13 15 21 18 24 10 3 -7 10 -13 15
-13 6 0 7 5 4 10 -3 6 1 10 9 10 8 0 18 5 21 10 4 7 -3 9 -22 5 -25 -5 -25 -4
-6 4 16 7 33 6 58 -5 37 -15 44 -12 21 11 -7 8 -17 11 -21 7 -4 -4 -6 8 -3 26
2 17 1 32 -4 32 -4 0 -8 7 -8 16 0 14 -2 14 -15 0 -8 -8 -15 -20 -15 -27 0 -8
-7 -5 -20 6 -11 10 -20 24 -20 31 0 7 -13 18 -30 26 -16 7 -30 17 -30 21 0 17
21 47 33 47 7 0 25 12 42 26 27 23 28 26 12 35 -9 6 -17 21 -17 34 0 18 -4 23
-15 19 -10 -4 -15 0 -15 15 0 12 -4 21 -10 21 -5 0 -10 8 -10 19 0 10 -9 21
-20 24 -30 8 -26 45 5 53 14 3 25 10 25 14 0 15 53 18 86 4 71 -30 167 -114
150 -131 -3 -4 -6 -2 -6 3 0 6 -14 21 -31 33 l-31 23 8 -23 c4 -13 7 -29 7
-35 0 -5 7 -10 16 -10 53 -1 72 -6 78 -21 4 -9 15 -25 25 -35 10 -10 18 -24
18 -32 0 -8 6 -17 13 -19 10 -4 10 -6 0 -6 -7 -1 -13 -6 -13 -12 0 -7 9 -9 23
-5 16 4 34 -2 56 -18 64 -47 77 -86 41 -124 -11 -12 -20 -24 -20 -27 0 -3 25
-3 56 1 54 6 58 5 80 -22 26 -32 30 -54 12 -72 -6 -6 -8 -15 -4 -19 4 -4 11
-1 17 7 8 13 11 12 20 -3 7 -11 17 -16 29 -12 10 3 22 0 26 -6 5 -9 2 -10 -9
-6 -11 4 -17 1 -17 -8 0 -8 3 -14 8 -14 4 1 14 1 22 0 13 -1 13 -3 1 -10 -12
-8 -8 -13 17 -28 30 -17 43 -43 22 -43 -5 0 -10 -6 -10 -14 0 -7 -7 -19 -15
-26 -8 -7 -15 -19 -15 -27 0 -8 -7 -21 -15 -29 -8 -9 -15 -26 -15 -39 0 -16
-9 -26 -30 -35 -24 -10 -30 -18 -28 -39 2 -18 -1 -25 -12 -24 -14 2 -60 -73
-60 -97 0 -23 19 -7 33 29 16 40 45 60 58 40 8 -13 29 19 29 44 0 19 47 49 76
49 13 1 21 4 19 8 -6 10 24 22 36 15 5 -4 6 1 3 9 -3 9 -12 16 -20 16 -8 0
-14 5 -14 10 0 6 -9 10 -20 10 -16 0 -18 4 -11 23 5 12 16 21 25 19 20 -4 20
20 2 105 -15 69 -72 180 -120 233 -54 60 -221 223 -282 276 -75 64 -205 153
-241 164 -15 4 -37 11 -47 16 -13 5 -17 4 -12 -4 12 -19 -17 -26 -31 -7 -17
24 -17 36 1 29 10 -4 15 6 18 33 6 48 -6 59 -54 46z m-19 -384 c-5 -10 -6 -25
-3 -33 3 -9 1 -16 -4 -16 -16 0 -25 39 -13 53 6 8 6 18 1 27 -19 30 -9 44 9
16 14 -21 17 -35 10 -47z"/>
<path d="M768 1725 c11 -21 50 -59 93 -91 15 -10 54 -41 88 -67 33 -27 61 -46
61 -44 0 3 -39 36 -87 73 -48 38 -105 87 -127 109 -21 22 -34 31 -28 20z"/>
<path d="M4354 1712 c11 -17 -25 -73 -44 -68 -8 3 -26 7 -39 11 -17 5 -22 4
-19 -6 3 -8 17 -15 31 -17 38 -5 34 -22 -5 -22 -18 -1 -53 -12 -78 -25 -50
-27 -39 -33 16 -10 20 8 48 12 64 8 18 -3 36 0 45 7 17 14 29 7 80 -45 25 -25
175 -111 175 -100 0 2 -30 24 -67 49 -38 25 -89 63 -115 85 -26 21 -53 41 -60
44 -9 3 -10 8 -2 16 12 14 60 -7 89 -39 17 -19 110 -71 162 -91 35 -13 37 8 3
27 -17 10 -30 27 -30 37 0 16 6 18 30 15 39 -6 39 8 -1 16 -25 5 -29 9 -24 27
7 20 5 21 -44 14 -40 -5 -51 -4 -51 7 0 8 16 20 36 27 45 16 40 24 -8 11 -26
-8 -46 -6 -77 5 -41 14 -42 14 -36 -6 5 -15 4 -19 -4 -15 -6 4 -11 13 -11 21
0 8 -5 17 -12 21 -7 4 -8 3 -4 -4z"/>
<path d="M2081 1683 c-7 -12 -10 -13 -11 -4 0 12 -93 -79 -125 -123 -20 -27
-31 -12 -16 21 10 26 10 27 -4 9 -8 -11 -15 -24 -15 -29 0 -4 -4 -5 -10 -2
-11 7 -60 -41 -60 -58 0 -5 -6 -15 -14 -21 -7 -6 -21 -30 -30 -54 l-16 -42 33
2 c40 2 53 8 37 18 -10 6 -8 19 5 56 24 65 34 76 62 71 13 -2 29 3 39 14 21
23 44 14 44 -17 0 -21 2 -23 14 -12 8 7 10 15 5 16 -13 5 -11 19 5 55 8 18 16
41 18 52 2 11 9 19 14 18 16 -3 58 34 46 41 -6 3 -15 -2 -21 -11z"/>
<path d="M348 1677 c-16 -6 -28 -17 -28 -24 0 -18 6 -17 48 12 38 26 28 31
-20 12z"/>
<path d="M2432 1638 c-1 -18 -7 -43 -13 -55 -9 -17 -9 -25 4 -37 19 -20 27
-20 27 -1 0 17 30 35 59 35 12 0 21 5 21 10 0 21 20 9 21 -12 0 -22 1 -22 9
-3 9 21 14 8 11 -27 -2 -20 7 -22 29 -8 12 8 12 11 -3 28 -9 10 -17 24 -17 30
0 7 -16 12 -41 12 -30 0 -40 4 -36 14 6 16 -27 46 -51 46 -13 0 -18 -9 -20
-32z"/>
<path d="M460 1656 c0 -2 7 -7 16 -10 8 -3 12 -2 9 4 -6 10 -25 14 -25 6z"/>
<path d="M3467 1626 c-4 -10 -5 -21 -2 -24 9 -9 17 6 13 25 -3 17 -4 17 -11
-1z"/>
<path d="M2351 1614 c0 -11 3 -14 6 -6 3 7 2 16 -1 19 -3 4 -6 -2 -5 -13z"/>
<path d="M450 1610 c0 -5 -11 -10 -24 -10 -26 0 -56 -33 -56 -61 0 -14 7 -16
30 -13 17 3 30 1 30 -5 0 -6 5 -11 10 -11 6 0 8 11 4 25 -5 20 -3 24 10 19 13
-5 16 1 16 30 0 20 -4 36 -10 36 -5 0 -10 -4 -10 -10z"/>
<path d="M2753 1607 c3 -9 11 -35 17 -59 6 -24 20 -62 31 -85 11 -23 17 -48
13 -55 -5 -10 -4 -10 5 -2 10 9 9 23 -4 65 -29 93 -48 139 -58 146 -6 4 -8 0
-4 -10z"/>
<path d="M1600 1571 c0 -16 5 -31 11 -33 6 -2 14 -22 18 -45 6 -30 5 -40 -4
-37 -7 3 -10 -7 -7 -31 3 -27 1 -35 -12 -35 -20 0 -20 -16 -2 -68 8 -22 12
-51 9 -64 -4 -18 -3 -20 6 -8 9 12 11 11 12 -10 1 -17 7 -6 20 33 16 49 17 69
9 126 -9 66 -47 201 -55 201 -3 0 -5 -13 -5 -29z"/>
<path d="M3940 1576 c0 -18 17 -29 30 -21 8 5 7 11 -1 21 -15 18 -29 18 -29 0z"/>
<path d="M3995 1546 c-61 -44 -135 -116 -121 -116 4 0 33 24 64 53 31 30 74
64 95 76 20 12 37 25 37 27 0 11 -21 0 -75 -40z"/>
<path d="M1959 1527 c-6 -14 -20 -28 -32 -31 -14 -3 -18 -10 -13 -23 4 -9 4
-14 0 -10 -9 9 -34 -12 -34 -28 0 -9 8 -11 22 -7 16 4 19 2 13 -8 -5 -9 -4
-11 3 -6 7 4 12 14 12 22 0 8 7 17 15 20 8 4 15 15 15 26 0 11 5 28 11 40 6
11 8 22 5 25 -3 3 -10 -6 -17 -20z"/>
<path d="M2380 1529 c0 -5 5 -7 10 -4 6 3 10 8 10 11 0 2 -4 4 -10 4 -5 0 -10
-5 -10 -11z"/>
<path d="M4065 1515 c-22 -14 -45 -32 -52 -41 -6 -8 -17 -16 -25 -17 -28 -5
-70 -45 -113 -108 -25 -37 -56 -74 -70 -83 -14 -9 -25 -23 -25 -30 0 -7 -7
-19 -15 -26 -17 -14 -21 -35 -4 -24 8 4 8 0 0 -15 -13 -24 -23 -28 -15 -6 11
28 -12 15 -60 -35 -26 -27 -52 -50 -57 -50 -5 0 -9 -5 -9 -11 0 -5 5 -7 10 -4
6 3 10 2 10 -3 0 -6 -7 -13 -16 -16 -10 -4 -13 -13 -9 -25 4 -14 -4 -27 -31
-47 -20 -16 -46 -28 -57 -29 -13 0 -34 -19 -59 -55 -20 -30 -63 -81 -93 -113
-71 -74 -94 -109 -77 -115 18 -6 14 -19 -8 -25 -11 -3 -20 -10 -20 -16 0 -6 7
-8 15 -5 8 4 15 1 15 -6 0 -6 -4 -9 -9 -5 -5 3 -12 1 -15 -4 -3 -5 -15 -7 -26
-4 -24 6 -26 -6 -5 -33 8 -10 15 -27 15 -36 0 -10 5 -18 12 -18 6 0 8 3 5 6
-4 4 7 22 23 41 26 30 30 41 28 83 -2 26 -6 46 -10 43 -5 -2 -8 0 -8 5 0 13
53 23 64 12 12 -12 -3 -32 -20 -26 -8 3 -14 -1 -14 -9 0 -8 7 -15 15 -15 8 0
15 4 15 10 0 5 11 12 25 16 14 3 25 10 25 15 0 17 16 9 58 -28 23 -20 42 -45
42 -55 0 -29 -18 -21 -36 17 -9 19 -20 35 -24 35 -5 0 -15 3 -24 6 -13 5 -14
1 -6 -28 12 -41 12 -41 0 -33 -5 3 -10 -3 -10 -14 0 -12 -4 -21 -10 -21 -5 0
-10 7 -10 15 0 8 -5 15 -11 15 -7 0 -9 -10 -5 -26 6 -21 4 -25 -8 -21 -9 4
-21 -2 -29 -14 -13 -18 -15 -18 -21 -3 -5 13 -9 14 -21 4 -8 -7 -12 -16 -9
-21 3 -5 10 -37 15 -71 5 -35 12 -72 16 -83 5 -18 4 -19 -13 -5 -18 13 -18 13
-2 -4 18 -21 38 -14 38 14 0 12 13 25 35 36 19 9 35 20 35 25 0 5 9 0 21 -12
11 -11 23 -19 25 -16 8 7 -8 37 -16 32 -5 -3 -6 4 -3 15 3 11 0 26 -6 34 -9
11 -7 15 12 20 13 3 34 15 47 26 14 12 31 18 42 14 12 -4 18 0 18 11 0 9 5 13
10 10 14 -9 13 8 -2 23 -9 9 -9 12 1 12 9 0 10 4 4 13 -5 6 -10 24 -11 38 -1
24 1 26 55 28 61 2 77 7 68 22 -10 15 5 11 41 -12 19 -11 37 -31 40 -45 5 -18
9 -21 18 -11 7 7 16 21 21 32 7 18 9 18 12 2 3 -9 9 -15 14 -11 20 12 -51 98
-88 107 -17 4 -11 -5 23 -38 32 -30 42 -45 34 -50 -8 -5 -16 -1 -22 9 -5 9
-18 16 -29 16 -11 0 -18 4 -15 9 8 13 -19 32 -36 26 -9 -4 -18 1 -22 10 -4 10
-12 15 -22 11 -8 -3 -12 -2 -9 4 3 6 3 10 -2 11 -4 0 -18 2 -30 3 -12 1 -21
-2 -20 -8 1 -6 -8 -11 -21 -12 -13 -1 -34 -12 -47 -24 -28 -26 -46 -19 -27 10
18 30 15 32 -19 14 -24 -12 -34 -13 -43 -4 -8 8 -6 15 9 26 11 8 19 22 17 30
-2 9 2 22 8 29 15 18 59 -1 57 -24 -1 -22 -35 -24 -40 -3 -3 12 -5 10 -6 -5
-1 -16 5 -23 19 -24 11 -1 26 -2 33 -3 6 -1 12 6 12 14 0 9 11 16 28 18 15 2
27 8 27 14 0 7 4 7 13 0 8 -6 18 -4 31 9 11 11 14 19 7 19 -9 0 -9 5 -1 20 9
16 8 19 -6 13 -13 -5 -15 -2 -9 18 4 13 14 30 24 37 9 7 15 17 14 22 -2 6 8 5
22 0 17 -7 25 -6 25 1 0 6 9 9 19 6 14 -3 21 2 26 20 3 14 15 34 25 46 22 23
26 37 10 37 -5 0 -10 -4 -10 -10 0 -5 -7 -10 -15 -10 -10 0 -15 10 -15 30 0
23 7 33 30 45 17 9 30 22 30 30 0 8 13 21 30 30 36 19 41 19 34 0 -4 -10 0
-15 15 -15 15 0 21 6 21 24 0 13 -7 27 -16 30 -12 5 -4 17 34 56 49 50 66 59
77 40 6 -10 55 8 55 21 0 11 -32 -1 -43 -15 -8 -10 -1 20 10 52 3 6 -2 12 -11
12 -9 0 -16 -6 -16 -13 0 -7 -18 -25 -39 -39 -37 -24 -40 -25 -44 -7 -7 26 65
83 92 74 27 -8 103 37 87 52 -3 4 -12 1 -18 -5 -7 -7 -18 -12 -25 -12 -8 0 7
20 32 44 25 24 45 47 45 50 0 13 -38 4 -75 -19z m-270 -305 c-3 -5 -11 -10
-16 -10 -6 0 -7 5 -4 10 3 6 11 10 16 10 6 0 7 -4 4 -10z m-220 -373 c6 -7 3
-7 -10 -2 -11 4 -28 10 -37 12 -10 3 -18 9 -18 14 0 9 49 -9 65 -24z m-152
-97 c24 -28 21 -33 -8 -14 -14 9 -25 20 -25 25 0 15 15 10 33 -11z m27 -193
c0 -8 -11 -20 -25 -27 -14 -7 -25 -17 -25 -22 0 -4 -8 -8 -17 -7 -11 0 -13 3
-5 6 6 2 12 9 12 15 0 11 40 47 53 48 4 0 7 -6 7 -13z m-86 -89 c-11 -17 -24
-6 -24 19 0 26 1 26 14 8 8 -11 12 -23 10 -27z m76 12 c0 -5 -7 -10 -15 -10
-8 0 -15 5 -15 10 0 6 7 10 15 10 8 0 15 -4 15 -10z"/>
<path d="M820 1521 c0 -5 5 -13 10 -16 6 -3 10 -2 10 4 0 5 -4 13 -10 16 -5 3
-10 2 -10 -4z"/>
<path d="M3460 1506 c0 -9 5 -16 10 -16 6 0 10 4 10 9 0 6 -4 13 -10 16 -5 3
-10 -1 -10 -9z"/>
<path d="M448 1485 c-10 -10 4 -45 18 -45 8 0 14 2 14 4 0 2 3 12 7 22 5 13 3
16 -10 11 -8 -3 -17 -1 -19 4 -2 6 -6 7 -10 4z"/>
<path d="M3640 1483 c-18 -7 -30 -23 -30 -42 0 -11 3 -11 15 -1 12 10 15 10
15 -4 0 -9 5 -16 10 -16 6 0 10 6 10 13 0 6 3 22 6 35 6 22 1 25 -26 15z"/>
<path d="M4115 1480 c-3 -5 1 -10 9 -10 9 0 16 5 16 10 0 6 -4 10 -9 10 -6 0
-13 -4 -16 -10z"/>
<path d="M2366 1462 c-4 -7 -18 -12 -31 -12 -13 0 -26 -6 -28 -12 -4 -10 -7
-10 -15 0 -7 10 -27 11 -103 2 -52 -7 -98 -16 -104 -22 -7 -7 6 -8 40 -3 77
11 270 6 336 -9 39 -10 57 -11 52 -3 -4 7 0 8 12 3 15 -5 16 -4 5 9 -7 8 -23
15 -36 15 -12 0 -29 9 -37 21 -9 13 -17 16 -22 10 -9 -15 -52 -14 -57 1 -3 9
-6 9 -12 0z"/>
<path d="M1188 1345 c55 -60 114 -137 131 -170 18 -33 41 -71 52 -85 l19 -25
-9 25 c-28 76 -79 145 -191 260 l-103 105 101 -110z"/>
<path d="M3705 1430 c-3 -5 -1 -10 4 -10 6 0 11 5 11 10 0 6 -2 10 -4 10 -3 0
-8 -4 -11 -10z"/>
<path d="M2020 1400 c-11 -8 -7 -9 15 -4 37 8 45 14 19 14 -10 0 -26 -5 -34
-10z"/>
<path d="M2545 1391 c-7 -12 42 -34 59 -27 7 3 6 5 -2 5 -7 1 -10 6 -7 11 3 6
2 10 -4 10 -5 0 -16 3 -24 6 -8 3 -18 1 -22 -5z"/>
<path d="M3775 1325 c-99 -99 -200 -214 -252 -287 -27 -40 -31 -48 -11 -24 18
22 59 66 90 99 31 33 58 63 60 68 2 5 45 54 97 109 51 56 92 102 90 103 -2 1
-36 -29 -74 -68z"/>
<path d="M1847 1348 c-15 -17 -25 -34 -21 -37 7 -7 54 45 54 60 0 13 -2 12
-33 -23z"/>
<path d="M2168 1373 c12 -2 30 -2 40 0 9 3 -1 5 -23 4 -22 0 -30 -2 -17 -4z"/>
<path d="M2335 1371 c11 -5 36 -10 56 -10 19 -1 39 -5 45 -9 15 -13 85 -34 91
-28 4 3 12 1 20 -6 15 -12 32 -2 17 11 -16 16 -115 41 -183 46 -45 4 -60 2
-46 -4z"/>
<path d="M1817 1363 c-4 -3 -7 -11 -7 -17 0 -6 5 -5 12 2 6 6 9 14 7 17 -3 3
-9 2 -12 -2z"/>
<path d="M2633 1356 c0 -16 222 -120 236 -111 5 3 13 0 17 -6 5 -8 3 -9 -7 -4
-8 5 -5 -1 5 -13 28 -33 29 -21 4 42 -17 41 -27 55 -38 50 -12 -4 -13 -3 -2 7
6 7 12 17 12 21 0 14 -28 8 -34 -7 -3 -8 -16 -15 -29 -15 -13 0 -28 -5 -34
-11 -9 -9 -19 -6 -41 10 -17 11 -36 21 -43 21 -7 0 -20 7 -29 15 -14 12 -17
13 -17 1z"/>
<path d="M2000 1343 c-149 -69 -183 -90 -174 -104 3 -5 -2 -6 -10 -3 -9 3 -16
2 -16 -4 0 -6 -2 -17 -5 -25 -7 -16 68 -72 83 -63 6 3 27 -1 48 -10 22 -9 50
-18 64 -20 23 -3 112 -31 153 -49 9 -4 17 -3 17 3 0 10 113 9 147 -2 12 -4 36
-9 54 -12 19 -2 45 -7 59 -9 25 -5 238 -5 295 -1 48 4 66 -4 63 -28 -2 -13
-10 -20 -21 -20 -32 3 -15 -29 22 -41 19 -6 23 -4 18 8 -9 23 20 29 49 11 22
-15 24 -15 18 0 -4 10 -1 17 7 17 8 1 -2 5 -21 9 l-35 7 28 11 c16 7 42 12 58
12 19 0 29 5 29 15 0 8 -7 15 -15 15 -13 0 -14 4 -5 21 9 17 7 26 -13 53 -28
36 -134 113 -143 104 -3 -4 9 -17 28 -30 18 -12 34 -30 36 -38 2 -10 -4 -8
-15 6 -10 12 -27 24 -38 28 -18 6 -19 5 -3 -7 10 -8 15 -17 11 -20 -3 -4 2 -9
11 -13 9 -3 16 -12 16 -20 0 -7 -6 -11 -14 -8 -8 3 -17 0 -21 -5 -3 -6 -11 -9
-16 -5 -5 3 -15 1 -22 -4 -27 -22 -138 -35 -289 -34 -129 0 -167 4 -215 20
-32 11 -75 23 -97 27 -21 3 -50 11 -65 16 -14 6 -26 9 -26 8 0 -1 -18 7 -40
18 -22 11 -53 23 -70 27 -60 15 -73 47 -27 69 15 8 58 22 96 32 38 10 77 26
88 37 17 17 17 18 -14 18 -18 0 -49 -8 -68 -17z m890 -237 c0 -2 -7 -6 -15
-10 -8 -3 -15 -1 -15 4 0 6 7 10 15 10 8 0 15 -2 15 -4z m-5 -56 c3 -6 -1 -7
-9 -4 -18 7 -21 14 -7 14 6 0 13 -4 16 -10z"/>
<path d="M953 1323 c0 -21 1 -23 9 -9 5 9 13 14 19 11 5 -4 9 -4 9 -1 0 3 -8
10 -19 15 -16 9 -18 7 -18 -16z"/>
<path d="M3582 1311 c-8 -5 -12 -15 -10 -24 2 -12 7 -10 21 9 18 24 13 31 -11
15z"/>
<path d="M800 1300 c-12 -8 -11 -10 8 -10 12 0 22 5 22 10 0 13 -11 13 -30 0z"/>
<path d="M870 1282 c0 -4 9 -8 20 -9 11 -1 20 2 20 8 0 5 -9 9 -20 9 -11 0
-20 -4 -20 -8z"/>
<path d="M3530 1230 c0 -5 5 -10 10 -10 6 0 10 5 10 10 0 6 -4 10 -10 10 -5 0
-10 -4 -10 -10z"/>
<path d="M1522 1164 c-7 -8 -8 -14 -3 -14 10 0 25 19 20 25 -2 1 -10 -3 -17
-11z"/>
<path d="M1637 1162 c1 -8 3 -16 3 -18 0 -2 5 -4 10 -4 6 0 10 10 10 23 0 16
-3 18 -9 8 -5 -7 -11 -9 -13 -5 -3 5 -3 3 -1 -4z"/>
<path d="M3470 1145 c-8 -9 -8 -15 -2 -15 12 0 26 19 19 26 -2 2 -10 -2 -17
-11z"/>
<path d="M892 1121 c11 -17 11 -25 0 -42 -11 -18 -11 -24 2 -38 20 -22 20 -41
1 -41 -9 0 -12 -6 -9 -15 4 -8 10 -13 14 -10 5 3 10 -2 12 -10 2 -10 9 -4 21
16 13 24 14 30 3 26 -10 -4 -15 5 -18 36 -3 23 -2 47 3 52 4 6 -4 18 -18 29
-24 18 -24 18 -11 -3z"/>
<path d="M1619 1110 c-1 -19 -1 -40 0 -46 0 -5 -12 -23 -29 -39 -16 -16 -30
-35 -30 -43 0 -8 -9 -27 -21 -43 -17 -24 -18 -33 -9 -44 18 -21 32 -18 25 5
-11 34 15 88 49 101 48 19 68 39 55 55 -6 8 -17 31 -25 51 l-13 38 -2 -35z"/>
<path d="M2935 1080 c-3 -5 -1 -19 5 -31 8 -14 9 -24 2 -31 -13 -13 -4 -38 14
-38 8 0 14 -4 14 -10 0 -5 -4 -10 -10 -10 -5 0 -7 -7 -4 -15 3 -8 10 -13 16
-12 6 1 12 -7 14 -18 1 -11 8 -21 13 -23 6 -2 11 -9 11 -15 0 -7 12 -23 25
-36 14 -13 25 -30 25 -39 0 -8 3 -13 6 -10 8 9 -22 102 -50 156 -13 26 -34 68
-45 95 -21 49 -26 54 -36 37z"/>
<path d="M1700 1057 c0 -19 -11 -37 -35 -58 -42 -37 -45 -53 -7 -37 60 26 78
58 56 99 l-13 24 -1 -28z"/>
<path d="M1252 1020 c0 -14 2 -19 5 -12 2 6 2 18 0 25 -3 6 -5 1 -5 -13z"/>
<path d="M730 1015 c-7 -8 -17 -12 -24 -8 -7 4 -7 2 1 -7 9 -10 15 -9 29 4 9
9 14 19 12 22 -3 2 -11 -2 -18 -11z"/>
<path d="M3564 978 l-29 -31 33 23 c17 13 32 27 32 32 0 13 -5 10 -36 -24z"/>
<path d="M960 979 c0 -5 -4 -8 -9 -5 -5 3 -12 -1 -15 -10 -11 -28 -6 -44 12
-44 14 -1 13 -4 -8 -22 -14 -11 -18 -19 -10 -16 8 2 21 -1 28 -9 12 -11 11
-20 -6 -53 -16 -33 -17 -42 -6 -51 11 -9 14 -7 15 12 1 18 2 20 6 6 3 -11 11
-16 19 -13 9 4 14 -2 14 -15 0 -11 -4 -17 -10 -14 -5 3 -10 4 -10 2 0 -2 18
-16 40 -31 22 -14 40 -22 40 -16 0 5 -4 10 -8 10 -4 0 -8 8 -9 18 -3 63 -14
116 -23 122 -6 4 -10 26 -8 50 l3 43 33 -33 c20 -22 32 -28 32 -19 0 21 -18
41 -67 72 -47 30 -53 32 -53 16z m62 -181 c-9 -9 -12 -9 -12 1 0 7 -4 9 -10 6
-5 -3 -10 -2 -10 4 0 13 23 20 35 10 5 -6 5 -13 -3 -21z"/>
<path d="M773 964 c-17 -13 -17 -15 12 -40 17 -16 31 -22 33 -15 2 6 11 11 20
11 15 1 15 2 0 14 -10 7 -18 18 -18 24 0 17 -27 21 -47 6z"/>
<path d="M1154 965 c-10 -8 -14 -14 -9 -15 15 0 40 18 34 24 -3 3 -14 -1 -25
-9z"/>
<path d="M4125 924 c-37 -37 5 -70 50 -40 36 24 33 56 -4 56 -16 0 -37 -7 -46
-16z"/>
<path d="M1115 910 c-3 -5 -1 -10 4 -10 6 0 11 5 11 10 0 6 -2 10 -4 10 -3 0
-8 -4 -11 -10z"/>
<path d="M3850 893 c0 -6 4 -14 9 -18 5 -3 13 -20 16 -38 4 -17 14 -44 21 -59
11 -21 11 -27 1 -31 -24 -9 8 -42 41 -42 31 -1 31 0 16 23 -9 13 -13 26 -10
29 3 3 -6 15 -20 25 -15 12 -23 27 -20 37 3 9 -7 31 -24 51 -16 19 -30 30 -30
23z"/>
<path d="M3922 840 c0 -14 2 -19 5 -12 2 6 2 18 0 25 -3 6 -5 1 -5 -13z"/>
<path d="M3980 827 c11 -15 11 -20 1 -27 -19 -11 -22 -57 -6 -70 16 -13 39 -4
29 11 -3 6 3 13 14 15 11 3 19 14 18 25 -1 11 -4 18 -8 17 -3 -2 -19 8 -34 22
-16 14 -22 17 -14 7z"/>
<path d="M3660 813 c0 -6 8 -17 18 -24 16 -13 16 -13 2 6 -8 11 -16 22 -17 24
-2 2 -3 0 -3 -6z"/>
<path d="M2212 759 c-13 -5 -55 -12 -92 -15 -60 -6 -67 -9 -54 -21 8 -8 22
-12 31 -9 24 10 66 -22 60 -45 -4 -14 3 -24 23 -34 39 -20 42 -19 38 13 -2 19
-9 28 -26 30 -12 2 -27 12 -33 23 -9 17 -8 20 8 18 10 -2 24 0 31 4 6 5 18 5
25 0 6 -4 20 -9 30 -10 20 -3 59 -24 95 -49 12 -9 22 -13 22 -8 0 5 -14 17
-30 26 -17 9 -30 22 -30 27 0 12 28 4 50 -14 8 -7 23 -15 34 -19 11 -3 16 -12
12 -21 -3 -8 -1 -17 3 -20 5 -3 11 1 14 9 3 7 21 16 40 20 20 4 37 12 39 18 3
7 16 5 41 -7 46 -22 74 -14 30 9 -18 9 -33 23 -33 30 0 10 -20 15 -67 19 -38
3 -102 13 -143 21 -88 18 -88 18 -118 5z m278 -57 c0 -4 -10 -9 -22 -9 -18 -2
-20 0 -8 7 18 12 30 13 30 2z"/>
<path d="M3000 751 c0 -11 49 -43 60 -39 5 2 -6 13 -25 26 -19 12 -35 18 -35
13z"/>
<path d="M1503 736 c4 -9 1 -16 -5 -16 -7 0 -9 -16 -5 -46 4 -38 2 -44 -11
-39 -8 3 -19 0 -24 -7 -11 -19 -10 -60 2 -53 6 3 10 15 10 26 0 16 7 19 41 19
39 0 41 2 37 25 -5 25 3 29 50 28 6 -1 12 6 12 15 0 8 -3 13 -6 9 -8 -7 -64
13 -64 24 0 4 -10 13 -22 20 -18 10 -20 9 -15 -5z"/>
<path d="M1550 735 c20 -24 86 -40 105 -25 33 28 18 40 -51 40 -58 0 -65 -2
-54 -15z"/>
<path d="M1835 741 c-67 -6 -72 -8 -66 -40 2 -17 46 -20 68 -6 12 8 38 15 57
15 36 0 57 24 30 34 -9 3 -16 5 -17 4 -1 -1 -33 -4 -72 -7z"/>
<path d="M2756 743 c-3 -3 -50 -5 -105 -4 -100 1 -100 1 -92 -21 10 -27 41
-30 90 -8 22 10 35 11 38 5 4 -14 95 -4 100 11 4 12 -21 26 -31 17z"/>
<path d="M1175 720 c3 -5 11 -10 16 -10 6 0 7 5 4 10 -3 6 -11 10 -16 10 -6 0
-7 -4 -4 -10z"/>
<path d="M1976 704 c-10 -27 -7 -43 13 -53 14 -8 25 -6 45 10 29 23 34 39 11
39 -8 0 -15 5 -15 10 0 16 -47 11 -54 -6z"/>
<path d="M1350 688 c-32 -48 -32 -51 -1 -29 17 12 31 29 31 37 0 21 -13 17
-30 -8z"/>
<path d="M1730 695 c0 -8 2 -15 4 -15 2 0 6 7 10 15 3 8 1 15 -4 15 -6 0 -10
-7 -10 -15z"/>
<path d="M2963 674 c-7 -19 16 -65 37 -72 8 -3 23 -11 32 -19 13 -12 21 -12
38 -3 18 9 24 9 30 0 5 -8 10 -3 14 14 3 14 11 26 16 26 6 0 10 5 10 10 0 6
-7 10 -15 10 -8 0 -15 -6 -15 -12 0 -9 -17 -13 -49 -13 -27 0 -47 4 -44 9 4 5
1 6 -4 3 -11 -7 -50 30 -40 39 3 3 17 -2 31 -11 14 -10 32 -15 40 -12 7 3 18
1 24 -5 6 -6 12 -6 16 1 9 14 -31 37 -77 44 -29 4 -40 2 -44 -9z"/>
<path d="M2645 670 c-3 -5 -2 -10 4 -10 5 0 13 5 16 10 3 6 2 10 -4 10 -5 0
-13 -4 -16 -10z"/>
<path d="M2160 620 c0 -5 5 -10 10 -10 6 0 10 5 10 10 0 6 -4 10 -10 10 -5 0
-10 -4 -10 -10z"/>
<path d="M1290 600 c0 -13 11 -13 30 0 12 8 11 10 -7 10 -13 0 -23 -4 -23 -10z"/>
<path d="M3780 584 c0 -8 5 -12 10 -9 6 4 8 11 5 16 -9 14 -15 11 -15 -7z"/>
<path d="M3586 515 c-3 -8 -1 -15 4 -15 6 0 10 7 10 15 0 8 -2 15 -4 15 -2 0
-6 -7 -10 -15z"/>
<path d="M3277 480 c7 -25 23 -37 23 -17 0 8 -6 20 -14 26 -12 10 -13 8 -9 -9z"/>
<path d="M1549 450 c-7 -22 -10 -42 -7 -45 5 -6 78 62 78 72 0 3 -9 3 -20 0
-11 -3 -18 -1 -14 4 3 5 -2 9 -10 9 -9 0 -20 -16 -27 -40z"/>
<path d="M1610 434 c0 -8 6 -14 14 -14 7 0 16 -9 19 -20 7 -28 28 -25 23 3 -3
12 -5 25 -5 28 -1 4 -12 9 -26 11 -17 4 -25 1 -25 -8z"/>
<path d="M3158 419 c-6 -37 11 -119 24 -119 6 0 6 14 1 33 -4 17 -7 51 -7 75
2 49 -12 57 -18 11z"/>
<path d="M3282 420 c-6 -10 -8 -21 -3 -24 5 -3 11 4 14 16 8 29 4 32 -11 8z"/>
<path d="M1686 392 c-14 -27 -14 -28 15 -30 26 -2 29 1 29 28 0 39 -24 40 -44
2z"/>
<path d="M3221 378 c-1 -15 4 -30 9 -33 12 -7 12 12 0 40 -8 18 -9 17 -9 -7z"/>
<path d="M1772 355 c-15 -33 -15 -35 3 -35 20 0 29 24 18 45 -8 14 -11 12 -21
-10z"/>
<path d="M2088 333 c-10 -2 -18 -11 -18 -18 0 -18 26 -9 34 11 3 8 4 13 3 13
-1 -1 -10 -3 -19 -6z"/>
</g>
</svg>
